<?xml version="1.0" encoding="UTF-8"?>
<svg id="_レイヤー_2" data-name="レイヤー_2" xmlns="http://www.w3.org/2000/svg" viewBox="0 0 523.36 716.79">
  <defs>
    <style>
      .cls-1 {
        fill: #3f3f3f;
      }

      .cls-2 {
        fill: #fff;
      }

      .cls-3 {
        fill: #90dee0;
      }
    </style>
  </defs>
  <g>
    <g>
      <g>
        <path class="cls-2" d="M230.75,148.12c-2.96-2.46-7.2-2.97-11.22-2.71-3.77-8.75-14.31-3.78-17.67-2.15-3.49,1.69-5.28.76-5.28.76,0,0,9.5-9.95,10.77-11.64,1.27-1.69,1.58-6.55,1.27-12.14-1.9,4.33-6.02,6.86-6.02,6.86,0,0,1.37-14.26.53-19.11-.84-4.86-6.23-24.71-6.97-27.88-.74-3.17,2.21-6.06,10.48-11.14-8-1.42-14.03,6.3-20.66,6.98-6.63.68-11.78-7.19-11.78-7.19,0,0-13.84.89-17.88,0-4.03-.89-12.96.16-19.82.64,1.58-5.64,7.08-13.69,7.08-13.69,0,0-8.12-.88-19.31,3.01-11.19,3.9-17.16,14.67-17.16,14.67-3.88,11.78-10.94,25.8-15.45,34.81-6.58,13.16-5.43,44.42-6.31,51.94-1.49,12.61,26.92,19.91,29.23,23.88,1.69,2.91,6.59,23.34,6.39,37.93-3.38,2.33-11.94,6.17-16.27,7.8,0,0,3.61,11.17,15.13,15.49,15.07,5.65,74.62-.16,89.28-20.48-14.26,2.53-12.79-25.03-11.47-32.71,1.3-7.59,5.3-12.15,8.4-14.63,4.58.47,9.89-.17,15.18-2.34,10.86-4.45,16.9-20.84,9.53-26.96Z"/>
        <path class="cls-2" d="M263.21,52.54c-5.26-20.03-16.14-20.15-24.3-22.41-8.16-2.27-20.39-17.63-25.79-21.2-14.08-9.3-36.4-9.6-47.68.67,0,0-13.37-1.61-23.46,1.48-10.09,3.1-21.85,10.11-25.86,17.68-5.41,10.21-10.9,10.04-15.37,21.74-4.41,11.51.61,17.67-1.38,21.64-1.99,3.97,3.3,9.06,3.3,9.06,0,0,6.14-15.12,20.6-21.87,3.36-1.57,12.17-1.99,18.18-2.52-4.4,6.28-5.49,12.42-6.6,14.71,7.85-2.23,31.41-1,38.91-1.55,3.7,2.87,6.23,6.48,11.23,7.36,3.05.54,5.59-1.13,8.68-3.01,0,0,7.55-5.35,10.32-4.09-3.97,2.22-8.31,5.34-8.91,8.63-1.33,7.25,3.81,17.3,5.64,23.59,3.78,13,.2,26.83.2,26.83,0,0,3.22-.77,7.12-6.04-.09,2.26-.3,4.88-.75,6.78-.98,4.07-12.43,14.71-12.43,14.71,0,0,4.41,3.25,9.9-.63,2.94-2.08,12.16-3.8,14.66,2.11,16.5-.87,16.26,12.17,9.4,21.86-4.42,6.24-11.18,8.39-15.08,9.1,5.14-.4,3.05,1.76,16.97-.92,8.9-1.71,22.53-14.38,26.27-17.91,1.58,2.01,3.47,3.1,3.47,3.1-1.03-16.51,12.46-20.26,14.62-36.8.91-6.95-1.31-14.59-3.19-19.52,2.11-4.18,14.35-31.15-8.64-52.6Z"/>
      </g>
      <g>
        <path class="cls-1" d="M255.42,159.41c-.78-.77-2.03-.76-2.8.02-.13.13-12.71,12.81-22.34,14.9-5.59,1.21-8.08,1.1-10.49,1-1.92-.08-3.9-.17-7.1.44-1.07.2-1.78,1.24-1.57,2.32.18.95,1.01,1.61,1.94,1.61.12,0,.25-.01.37-.04,2.75-.52,4.34-.45,6.18-.37,2.54.11,5.41.24,11.5-1.08,10.79-2.34,23.78-15.43,24.33-15.99.77-.78.76-2.03-.02-2.8Z"/>
        <path class="cls-1" d="M273.96,104.81c.17-.29,16.26-29.3-8.99-53.33-5-18.35-14.79-20.67-22.67-22.55-.98-.23-1.94-.46-2.87-.72-4.75-1.32-11.57-8.08-17.04-13.51-3.27-3.25-6.1-6.05-8.18-7.43-14.89-9.83-37.69-9.64-49.43.26-3.23-.31-14.42-1.1-23.39,1.65-9.87,3.03-22.54,10.16-27.03,18.65-2.29,4.32-4.52,6.6-6.88,9.02-2.94,3-5.97,6.1-8.59,12.94-2.66,6.96-1.97,10.59-1.36,13.79.46,2.4.85,4.47-.08,8.07-.27,1.06.36,2.14,1.42,2.41,1.06.27,2.14-.36,2.41-1.42,1.16-4.46.62-7.3.14-9.8-.56-2.94-1.09-5.72,1.17-11.63,2.32-6.07,4.83-8.63,7.72-11.59,2.46-2.51,5-5.1,7.55-9.93,3.79-7.16,15.29-13.83,24.7-16.72,9.56-2.93,22.51-1.43,22.64-1.41.57.07,1.14-.11,1.57-.5,10.3-9.38,31.45-9.6,45.26-.48,1.76,1.16,4.59,3.97,7.58,6.94,6.1,6.06,13.02,12.92,18.77,14.52.97.27,1.98.51,3.01.76,7.65,1.82,15.55,3.7,19.9,20.25.09.36.29.69.56.94,19.33,18.04,13.15,38.7,10,46.09-.3-.63-.5-1.01-.54-1.1-.51-.97-1.71-1.34-2.67-.84-.97.51-1.34,1.7-.84,2.67.07.13,6.66,12.93,5.27,23.59-.94,7.2-4.22,11.67-7.38,15.99-3.83,5.22-7.78,10.61-7.19,20.15.07,1.05.94,1.86,1.97,1.86.04,0,.08,0,.13,0,1.09-.07,1.92-1.01,1.85-2.1-.51-8.1,2.71-12.49,6.43-17.56,3.3-4.5,7.05-9.61,8.12-17.82.93-7.15-1.2-14.86-3.12-20,.02-.03.05-.06.08-.1Z"/>
        <path class="cls-1" d="M116.3,183.04c-1-1.71-3.67-3.04-9.15-5.64-8.23-3.91-20.67-9.81-19.82-17.01.23-1.95.32-5.27.44-9.49.34-12.08.92-32.29,5.67-41.8,4.46-8.92,10.73-22.1,15.31-31.71l.15-.32c.47-.99.05-2.17-.94-2.64-.99-.47-2.17-.05-2.64.94l-.15.32c-4.57,9.6-10.84,22.76-15.28,31.65-5.15,10.29-5.71,30.25-6.09,43.46-.12,4.11-.21,7.36-.42,9.14-1.18,10.02,12.25,16.4,22.06,21.05,3.05,1.45,6.85,3.25,7.42,4.05,1.69,2.91,6.48,21.92,6.28,35.84-3,2.21-9.38,4.87-13.3,6.35-1.02.39-1.54,1.53-1.15,2.55.3.79,1.05,1.28,1.85,1.28.23,0,.47-.04.7-.13,3.15-1.19,8.73-3.49,11.58-5.13-.36,2.81-1.02,5.23-2.1,6.98-.57.93-.28,2.15.65,2.72.32.2.68.29,1.03.29.67,0,1.32-.34,1.69-.94,7.57-12.32-1.13-47.17-3.82-51.8Z"/>
        <path class="cls-1" d="M207.26,222.82c-1.55-.06-3.7-.72-4.75-2-4.95-6.04-4.59-21.87-3.25-30.32,1.1-6.94,7.16-10.95,7.23-10.99.92-.59,1.18-1.81.59-2.73-.59-.92-1.81-1.19-2.73-.6-.31.2-7.61,4.96-9,13.7-.7,4.38-2.93,24.87,4.1,33.45,1.78,2.18,4.94,3.34,7.65,3.44.03,0,.05,0,.08,0,1.06,0,1.93-.83,1.98-1.9.04-1.09-.81-2.01-1.9-2.06Z"/>
        <path class="cls-1" d="M232.02,146.6c-8.17-6.78-23.99-.77-24.66-.51-1.02.39-1.53,1.54-1.13,2.56.39,1.02,1.54,1.52,2.56,1.13,3.96-1.53,15.4-4.53,20.7-.13,2.82,2.34,2.69,6.32,2.36,8.48-.85,5.55-5.03,12.52-11.38,15.12-7.2,2.95-15.4,3.1-20.9.4-2.47-1.22-4.11-2.9-4.62-4.75-.29-1.05-1.37-1.67-2.43-1.39-1.05.29-1.68,1.38-1.39,2.43.81,2.95,3.18,5.53,6.69,7.25,3.19,1.57,7,2.35,11.04,2.35,4.29,0,8.82-.88,13.11-2.64,6.91-2.83,12.58-10.31,13.79-18.18.79-5.16-.54-9.47-3.74-12.13Z"/>
        <path class="cls-1" d="M184.72,163.71c-.84-.7-2.08-.59-2.79.24-.06.07-6.41,7.53-14.57,9.55-8.4,2.07-26.62-1.15-26.8-1.18-1.07-.19-2.1.52-2.3,1.6-.19,1.08.52,2.1,1.6,2.3.58.1,10.91,1.93,19.96,1.93,3.14,0,6.12-.22,8.49-.81,9.43-2.33,16.36-10.5,16.65-10.85.7-.84.59-2.08-.24-2.79Z"/>
        <path class="cls-1" d="M179.77,41.94c-.14-1.08-1.14-1.85-2.22-1.71-1.19.16-2.75.32-4.56.5-7.05.73-16.71,1.72-20.94,4.07-5.14,2.85-8.76,6.26-11.39,9.69-1.44.22-3.23.4-5.1.58-4.67.46-9.96.98-13.14,2.46-14.99,6.99-21.33,22.27-21.6,22.92-.41,1.01.08,2.17,1.09,2.58.24.1.5.15.74.15.78,0,1.52-.47,1.84-1.23.06-.14,6.01-14.48,19.6-20.82,2.56-1.2,7.5-1.68,11.85-2.11.64-.06,1.27-.13,1.88-.19-1.98,3.55-3.06,6.86-3.85,9.28-.35,1.08-.66,2.02-.92,2.54-.48.98-.07,2.17.91,2.65.28.14.58.2.87.2.73,0,1.44-.41,1.78-1.11.38-.77.71-1.78,1.12-3.05,1.69-5.15,4.83-14.75,16.23-21.07,3.52-1.95,13.09-2.94,19.42-3.59,1.84-.19,3.43-.35,4.67-.52,1.08-.14,1.85-1.14,1.71-2.22Z"/>
        <path class="cls-1" d="M239.25,100.71c-1.05-.29-2.14.32-2.44,1.37-.03.1-2.78,9.63-9.32,10.46-2.34.3-4.3-.09-6.19-.46-4.03-.79-8.19-1.62-12.24,5.83-1.94,3.57-3.83,5.82-5.34,7.23.79-5.31,1.47-14.4-1.11-23.24-.58-2-1.29-4.14-1.98-6.21-2.3-6.91-4.91-14.74-2.82-18.17,1.84-3.03,5.71-4.87,10.6-7.2,4.35-2.07,9.77-4.64,15.29-8.88.87-.67,1.03-1.91.37-2.78-.67-.87-1.91-1.03-2.78-.37-5.18,3.98-10.17,6.35-14.57,8.44-.91.43-1.79.86-2.65,1.28-4.19.17-7.89,2.37-11.17,4.34-2.84,1.71-5.51,3.33-7.62,3-3.06-.47-5.06-2.3-7.37-4.42-.92-.85-1.88-1.72-2.94-2.55-.39-.3-.87-.45-1.36-.41-2.67.2-6.68,0-10.93-.22-7.47-.37-15.94-.8-21.18.69-1.05.3-1.66,1.39-1.37,2.44.3,1.05,1.39,1.66,2.44,1.37,4.62-1.31,12.74-.9,19.9-.54,3.99.2,7.78.39,10.62.26.73.6,1.43,1.25,2.12,1.88,2.55,2.35,5.2,4.77,9.45,5.42.4.06.79.09,1.18.09,2.75,0,5.38-1.41,8.11-3.03-2.27,5.07.35,12.96,2.9,20.6.71,2.13,1.38,4.13,1.94,6.06,3.58,12.29.21,25.65.18,25.78-.17.67.02,1.39.51,1.88.38.38.89.59,1.41.59.15,0,.31-.02.46-.05.31-.07,1.92-.54,4.15-2.37-.05.24-.11.48-.16.73-.58,2.41-6.81,9.05-11.04,13-.8.75-.84,2-.1,2.8.39.42.92.63,1.45.63.48,0,.97-.18,1.35-.53,1.85-1.72,11.13-10.55,12.19-14.97.75-3.12.86-5.54.86-6.7.81-1.15,1.64-2.46,2.48-3.99,2.66-4.89,4.22-4.58,8-3.84,2,.39,4.48.88,7.46.5,9.16-1.16,12.5-12.83,12.64-13.33.29-1.05-.32-2.14-1.38-2.43Z"/>
      </g>
      <g>
        <path class="cls-1" d="M129.51,138.4c-.21-1.07-1.26-1.77-2.33-1.56-6.32,1.25-14.61.42-24.65-2.47-2.08-.6-2.66-2.71-2.69-2.84-.25-1.06-1.31-1.71-2.37-1.47-1.07.25-1.73,1.31-1.48,2.37.04.18,1.08,4.48,5.45,5.73,7.36,2.12,13.9,3.19,19.53,3.19,2.51,0,4.84-.21,6.98-.63,1.07-.21,1.77-1.25,1.56-2.33Z"/>
        <path class="cls-1" d="M132.07,85.79c-1.02-.4-2.17.1-2.57,1.12-2.03,5.19-8.84,12.68-17.45,16.34-5.56,2.37-4.35,7.03-3.54,10.12.42,1.63.83,3.17.56,4.41-.28,1.31-1.03,2.61-1.03,2.62-.55.94-.24,2.16.71,2.71.31.18.66.27,1,.27.68,0,1.34-.35,1.71-.98.11-.19,1.08-1.88,1.49-3.79.46-2.16-.1-4.33-.6-6.24-.94-3.6-.94-4.54,1.26-5.48,9.71-4.13,17.2-12.45,19.58-18.54.4-1.02-.1-2.17-1.12-2.57Z"/>
        <path class="cls-1" d="M157.27,89.46c-3.3-2.12-5.95,4.71-5.95,4.71-1.9,3.39.94,7.66,2.23,8.61,2.11,1.56,5.08.43,5.92-1.5,1.75-4.01,1.09-9.7-2.21-11.82Z"/>
        <path class="cls-1" d="M123.12,78.19c-2.16-.32-6.47,2.36-7.68,5.5-.91,2.37-.73,4.12.21,4.7.93.58,3.75.24,5.47-.78,2.29-1.36,4.99-8.97,2-9.42Z"/>
        <path class="cls-1" d="M166.42,62.67c-3.26-2.61-8.53-.5-9.12-.25-.89.38-1.31,1.41-.93,2.31.38.89,1.41,1.31,2.31.93,1.25-.53,4.25-1.29,5.55-.25,2.02,1.62,6.8,9.08,5.62,16.31-.16.96.49,1.86,1.45,2.02.1.02.19.02.28.02.85,0,1.59-.61,1.74-1.48,1.35-8.3-3.69-17.06-6.89-19.63Z"/>
      </g>
    </g>
    <g>
      <g>
        <path class="cls-3" d="M228.63,581.72s-27.95-5.17-57.29-3.43c-16.33.97-51.54,15.66-70.92,21.8-25.24,7.99-78.01-1.25-78.01-1.25,0,0-.23,16.42.19,20.64.39,3.87,2.17,63.99,9.77,84.89,25.13,16.68,138.92,9.41,202.48,5.04-.81-26.19,2.96-82.68,0-90.29-2.96-7.6.01-17.72,2.5-22.39,3.1-5.81-8.72-15.02-8.72-15.02Z"/>
        <path class="cls-1" d="M34.23,703.69c-6.38-17.53-8.64-63.96-9.38-79.21-.14-2.86-.22-4.58-.28-5.2-.4-4.04,0-17.65,0-17.77.04-1.09-.82-2.01-1.91-2.05-1.09-.04-2.01.82-2.05,1.91-.02.5-.42,13.99,0,18.3.05.52.14,2.4.27,5,.75,15.4,3.03,62.28,9.61,80.37.29.8,1.05,1.3,1.86,1.3.22,0,.45-.04.68-.12,1.03-.37,1.56-1.51,1.18-2.54Z"/>
        <path class="cls-1" d="M233.78,585.78c-.92-.59-2.14-.33-2.73.58-.59.92-.34,2.14.58,2.74.06.04,5.58,3.76,3.99,6.68-2.81,5.15-5.82,15.8-2.61,24.05,1.6,4.11.96,27.12.4,47.41-.43,15.44-.87,31.41-.53,42.22.03,1.07.91,1.92,1.98,1.92.02,0,.04,0,.06,0,1.09-.03,1.95-.95,1.92-2.04-.33-10.69.11-26.6.53-41.99.76-27.44,1.09-44.43-.67-48.96-2.7-6.95.04-16.4,2.4-20.72,2.69-4.94-2.07-9.81-5.31-11.9Z"/>
        <path class="cls-1" d="M106.23,696.3c-10.76-12.19-45.92-29.52-47.42-30.25-.98-.48-2.17-.08-2.65.91-.48.98-.08,2.17.91,2.65.36.18,35.95,17.71,46.19,29.31,9.54,10.81,9.5,15.64,9.51,15.64-.13,1.09.64,2.07,1.72,2.21.08.01.16.01.24.01.99,0,1.84-.74,1.96-1.74.12-1.01.2-6.65-10.47-18.75Z"/>
        <path class="cls-1" d="M217.91,667.6c-1.52-12.69.56-24.73,2.24-34.39,1.99-11.52,3.57-20.62-3.73-22.42-7.82-1.92-20.88-19.9-25.25-26.67-.59-.92-1.82-1.18-2.74-.59-.92.59-1.18,1.82-.59,2.74,1.7,2.62,16.88,25.72,27.63,28.36,3.54.87,2.65,7.05.77,17.9-1.72,9.92-3.85,22.27-2.27,35.54,3.28,27.46,3.9,41.22,3.91,41.36.05,1.06.92,1.89,1.98,1.89.03,0,.06,0,.09,0,1.09-.05,1.94-.97,1.89-2.06,0-.14-.63-14.02-3.94-41.66Z"/>
      </g>
      <g>
        <path class="cls-1" d="M309.57,292.58c-3.03-35.09-28.14-55.34-50.19-59.31-10.77-1.94-20.95-5.15-32.73-8.87-5.39-1.7-10.96-3.46-17.08-5.25-.86-.25-1.78.1-2.25.87-13.46,22-72.35,23.68-82.94,21.77-14.12-2.56-18.1-15.03-18.26-15.56-.31-1.05-1.69-1.03-2.73-.71-.15.05-38.56,12.2-49.02,15.51-15.69,4.97-25.39,8.12-27.67,9.88-3.81,2.93-22.68,18.95-20.29,46.09,1.11,12.58-2.02,62.87-4.3,99.6C.98,414.64.09,428.89,0,433.87c-.19,11.1,4.14,27.29,12.52,35.45,3.43,3.34,7.22,5.05,11.27,5.14-1.01,10.11-5.46,57.37-1.97,72.49,2.21,9.58-.43,17.58-2.77,24.63-1.52,4.59-2.95,8.92-2.77,13.03.09,1.97.21,17.35,5.72,18.73,3.38.84,25.25,3.16,46.24,3.16,12.37,0,24.43-.81,32.22-3.19,4.98-1.52,10.96-3.49,17.28-5.57,19.83-6.53,44.5-14.65,56.32-14.97,18.68-.49,51.22,1.14,56.19,4.33,1.62,1.04,3.09,1.2,4.45.66,4-1.59,5.45-18.77,6.55-22.46,1.92-6.49-.8-15.97-3.69-26.01-2.52-8.75-5.12-17.8-4.54-24.73,1.24-14.83,5.13-30.57,6.09-32.92,1.97-.66,4.58-2.09,5.74-3.35,3.22-3.48,3.25-7.18,8-13.72,2.73-3.77,5.28-7.23,9.19-12.09,3.48-4.33,12.44-33.58,18.27-47.31,12.9-30.35,32.38-76.22,29.24-112.59Z"/>
        <path class="cls-2" d="M242.49,354.85c-1.09.62-3.65,1.63-6.76,2.64,3.68-3.56,10.82-10.88,11.93-15.2.84-3.28-.49-6.51-2.07-8.48-1.57-1.97-5.32-5.47-11.28,2.73-1.78,2.44-4.66,4.27-7.9,5.89,1.39-1.59,3.1-3.71,3.84-5.33,1.75-3.82-.03-9.54-2.25-12.17-1.9-2.26-5.69,1.51-8.63,5.26-2.66,3.38-15.48,12.48-17.38,15.48-1.52,2.39-.87,16.38-.65,21.7-3.89,4.86-8.51,9.06-8.17,12.04.67,5.91.16,17.6.16,17.6,0,0,3.84.49,5.69.65,1.84.16,2.04-1.15,5.79-2.93,3.75-1.78,10.05,2.95,10.05,2.95,0,0,5.96-8.3,8.24-8.34,7.39-.15,15.67.45,18.85-5.52,3.18-5.97,1.95-9.2-4.02-8.03-1.52.3-3.71.18-6.17-.08,4.63-2.05,15.87-7.47,16.26-12.08.48-5.81-3.11-10.15-5.52-8.77Z"/>
        <path class="cls-2" d="M89.99,371.51s-21.47-.53-28.87,3.04c-9.71,4.69-14.08,12.91-14.34,16.05-.47,5.67-.1,20.59-.1,20.59,0,0,10.89-.47,16.06.06s11.59,5.12,13.24,6.17c-6.44-10.14,7.51-42.88,14.01-45.91Z"/>
        <path class="cls-1" d="M246.27,353.36c-.94-.59-1.94-.83-2.9-.71,2.81-3.02,5.73-6.76,6.54-9.99,1.27-5.05-1.58-9.12-2.48-10.25-4.73-5.61-9.88-3.42-14.33,2.75.6-4.34-1.3-9.25-3.33-11.67-2.95-2.97-6.42-1.33-11.69,5.4-2.54,3.2-16.19,13.23-17.44,15.84-1.96,3.14-1.44,16.51-1.16,21.64-3.27,4.1-8.12,9.36-7.83,12.89.09,3.83-.5,15.34-.54,15.85-.06.71.49,1.91,1.95,2.02,1.46.11,2.08-1.14,2.13-1.71.06-.69.52-12.05.42-16.24-.04-1.72,2.65-5.02,5.25-8.21,3.6-4.41,7.69-9.42,9.01-14.88,1.04-4.3,6.66-6.82,12.61-9.5,5.3-2.38,10.78-4.84,13.75-9,2.01-2.81,3.93-4.38,5.4-4.42,2.97.24,5.31,5.28,4.44,8.53-1.09,4.33-10.99,14.12-11.69,14.34-4.53,1.47-9.23,2.58-13.75,3.09-5.48.73-10.21,1.36-12.55,5.88-2.14,4.15-10.11,16.24-10.21,16.37-.62.9-.38,2.14.52,2.75.89.61,2.13.39,2.75-.52.38-.56,8.2-12.42,10.45-16.78,1.22-3.23,8-3.48,12.78-4.23,6.88-1.07,18.14-5.66,18.91-5.88,1.86-.54,3.39,3.76,3.15,6.8-.25,3.14-13.78,10.18-14.9,10.33-6.91-.78-17.54-2.91-19.48,2.01-1.45,3.12-6.94,8.69-12.17,12.7-1.08.87-.92,2.14-.22,2.91.61.67,1.65.95,2.64.23,1.46-1.12,11.01-9.15,13.34-14.17.74-1.59,8.59-.6,12.35-.12,4.19.53,8.15,1.03,10.76.5,2.13-.43,3.03-.1,3.21.14.28.37.36,1.9-1.31,5.07-2.35,4.91-11.67,3.74-17.75,3.92-2.32.06-8.58,6.79-9.41,7.79-.55.66-.74,1.79.17,2.64.91.85,2.15.37,2.52,0,.36-.37,5.99-6.19,6.9-6.48,7.4-.19,17.28,1.18,21.08-6.04,3.08-5.81,2.72-10.79-3.29-11.2,4.44-2.45,9.19-5.97,9.51-9.93.35-4.41-1.35-8.72-4.13-10.46ZM228.76,336.21c-1.26,2.74-3.59,4.61-3.77,4.86-1.34.66-2.74,1.29-4.12,1.91-6.55,2.94-13.33,5.99-14.83,12.17-.49,2.04-1.52,4.08-2.79,6.09-.19-6.76.02-13.13.78-14.42,2.34-3.23,14.8-12.22,17.21-15.51,3.18-4.12,4.7-5.6,5.55-5.24,1.36.57,3.37,7.05,1.98,10.13Z"/>
      </g>
    </g>
  </g>
  <g>
    <g>
      <g>
        <path class="cls-2" d="M348.56,280.29c-7.38-4.04-8.42-13.66-4.29-19.23,3.77-5.09,8.63-9.86,9.35-15.91-11.52,5.7-22.85,1.26-27.04-4.92-4.29,11.15-29.32,20.02-36.78,31.12-11.74,17.48-2.64,30.38,9.85,32.18,5.38.77,8.24,2.87,9.47,4.49,2.94,3.86-5.44,12.86-5.44,12.86,0,0,28.23-16.35,30.21-16.51s10.75,3.68,10.75,3.68c0,0,14.52-5.94,17.01-8.55,4.2-12.88-5.33-14.93-13.11-19.19ZM296.51,287.2c-.45-5.64,3.17-9.63,9.63-12.2-9.86,9.55,1.55,22.54,1.55,22.54,0,0-10.73-4.7-11.18-10.34Z"/>
        <path class="cls-2" d="M428.82,293.24c-1.14-13.45,1.08-39.54,1.08-39.54,0,0-39.4,2.61-47.32,0-7.92-2.61-20.56-14.61-22.51-13.78-1.94.83-6,10.91-6,10.91,0,0,7.78,3.6,9.62,7.47,1.84,3.87,4.7,34.03.59,37.79-4.11,3.76-18.32,10.74-21.81,11.43,0,0,74.38,31.48,104.37,24.51,9.37-2.18,19.22-25.5,19.22-25.5-8.91,1.34-31.72-10.37-37.23-13.29Z"/>
        <path class="cls-2" d="M360.17,240.23s-1.28-.38-2.7,1.83-6.85,6.44-15.01,6.92c10.22.95,21.23,9.32,21.23,9.32-.99-3.59-3.83-13.99-3.51-18.07Z"/>
        <path class="cls-2" d="M459.22,202.47c-.59-11.89-14.3-44.71-15.3-47.21-1-2.5-5.78-16.77-16.12-28.4-11.55-13-38.13-18.35-38.13-18.35,0,0,5.74,12.3,3.44,28.38-2.05,14.37-25.21,36.12-33.61,41.18-2.11,10.54-15,20.2-15,20.2,1.45,7.6,5.76,17.38,10.12,21.7-5.7,2.49-24.37-7.96-32.16,4.22-5.47,8.54,4.77,24.04,17.97,24.76,14.43.78,19.61-8.74,19.61-8.74,0,0,13.85,11.07,21.68,13.9,7.83,2.83,50.2,2.6,60.23-1.59,7.14-2.98,18.13-32.83,17.27-50.04Z"/>
        <path class="cls-3" d="M437.39,206.39c-5.02-3.55-18.79,2.27-17.76,9.19.7,4.72,11.13,19.12,16.6,17.73,4.94-1.26,5.38-23.93,1.16-26.92Z"/>
        <path class="cls-2" d="M435.91,108.68c-20.83-20.31-66.04-25.42-72.75-22.95-6.7,2.47-14.64,10.18-14.64,10.18,0,0-13.28-4.09-31.76,4.65-20.49,9.69-45.25,64.4-42.37,90.36,1.75,15.78,8.58,18.03,8.58,18.03,0,0,4.1,13.95,11,19.66,7.93,6.56,18.68,13.12,31,11.59,0,0-7.85-10.94,1.06-18.57,6.66-5.7,17.16-1.76,22.74-.24,2.61.71,5.77.74,7.67-1.78,0,0-8.53-8.31-10.88-20.97,2.71-1.92,7.41-6.11,9.47-9.27,1.87-2.87,3.53-6.4,4.96-10.1,9.79-7.97,35.77-30.54,35.73-46.25-.03-9.74-2.01-17.17-4.57-23.86,8.05,1.98,22.09,6.78,31.18,13.68,13.4,10.18,20.96,30.75,20.96,30.75,0,0,13.45-24.6-7.39-44.91Z"/>
      </g>
      <g>
        <path class="cls-2" d="M459.71,607.04c-39.46,2.95-87.66,2.37-136.9,2.75,0,0-4.75,41.89.27,63.89,5.02,22,7.06,40.64,7.06,40.64,41.93,3.06,98.27-1.61,156.25-9.56,17.71-38.1,27.4-87.01,28.28-102.83-15.5,2.16-34.66,3.6-54.96,5.12Z"/>
        <path class="cls-3" d="M513.1,518.09c5.39-13.38,8.14-33.33,5.25-40.74-.43-1.1-.95-2.14-1.54-3.12-3.62-10.39,5.04-122.65-1.82-139.9-2.26-5.68-7.54-11.31-12.43-13.66-4.89-2.35-17.03-8.21-18.52-8.9-7.71-3.59-8.59-5.15-12.51-8.07-3.84-2.86-5.47-1.09-5.87.07-.39,1.16-2.24,6.71-4.18,10.29-1.94,3.58-9.85,16.37-18.36,17.24-39.38,4.03-105.57-28.17-108.86-28.4-3.3-.23-30.12,18.48-39.2,20.56-9.08,2.08-18.96,14.05-24.65,33.46-5.69,19.41,9.56,44.54,14.62,59.61,5.05,15.07,13.84,45.15,19.46,62.55,1.26,3.9,4.69,12.73,5.71,14.59,3.72,13.74,2.09,53.8,2.19,66.7.08,9.75,10.88,17.11,10.88,17.11-.49,6.55-2.04,15.21-3.41,23.34-.97,5.73.36,9.05,1.66,10.17,2.14,1.85,186.08-.46,194.48-9.58,2.27-2.47,0-29.1,0-29.1,0,0,.42-4.33,4.86-13.31,3.76-7.62-4.07-22.74-7.75-40.9Z"/>
        <path class="cls-2" d="M459.27,374.58c-1.09-8.96-1.69-46.64-1.46-52.67.04-1.06-.36-2.12-1.08-3.17,3.84-1.28,5.94-4.91,2.99-7.55-.29-.26-.59-.55-.92-.87-.03-1.6-.27-3.15-.7-4.63.1-6.25,1.57-13.74-1.29-18.1-.23-.36-.52-.74-.85-1.14h0c-5.34-6.15-21.72-33-29.9-28.25-.26.15-.52.29-.78.43-5.25-1.8-22.34-7.13-25.25-1.21-3.24,6.6-19.57,33.34-19.57,33.34-3.5,3.74,7.79,41.22,9.65,54.2,1.86,12.98-3.42,31.75-3.42,31.75,3.6,11.99,9.95,23,18.14,33.34,0,0,7.74-20.67,12.78-26.39,3.24,2.06,10.27,6.73,12.27,9.62,2.64,3.8,3.9,13.36,3.9,13.36,12.75,3.32,24.61,5.44,32.54,2.27,0,0-5.97-25.39-7.06-34.35Z"/>
      </g>
    </g>
    <g>
      <g>
        <path class="cls-1" d="M326.66,239.89c-.91-.35-1.93.1-2.27,1.01-2.07,5.39-10.03,10.27-17.72,14.99-7.19,4.41-14.62,8.97-18.32,14.47-5.76,8.57-7.24,17.08-4.18,23.96,2.6,5.85,8.3,9.94,15.25,10.94,5.64.81,7.8,3.12,8.32,3.81,1.35,1.77-1.82,6.26-4.38,8.73-.7.67-.72,1.79-.05,2.49.35.36.81.54,1.27.54s.88-.16,1.22-.49c.88-.85,8.53-8.44,4.74-13.4-1.16-1.53-4.09-4.23-10.62-5.16-5.74-.82-10.42-4.14-12.53-8.88-2.55-5.74-1.17-13.04,3.89-20.57,3.27-4.86,10.37-9.22,17.24-13.43,8.57-5.26,16.66-10.23,19.16-16.73.35-.91-.1-1.93-1.01-2.27Z"/>
        <path class="cls-1" d="M352.87,280.52c-1.14-.56-2.31-1.15-3.46-1.78-3.26-1.79-4.59-4.54-5.12-6.53-.89-3.32-.32-7.24,1.49-10.24,2.3-3.8,7.73-9.5,7.79-9.56.67-.7.65-1.82-.06-2.49-.7-.67-1.81-.65-2.49.06-.23.24-5.75,6.04-8.25,10.17-2.33,3.85-3.03,8.7-1.88,12.98,1.02,3.81,3.39,6.81,6.83,8.7,1.21.66,2.42,1.26,3.59,1.84,6.46,3.21,10.73,5.33,8.62,13.29-.25.94.31,1.9,1.25,2.15.15.04.3.06.45.06.78,0,1.49-.52,1.7-1.31,2.85-10.74-3.92-14.1-10.46-17.35Z"/>
        <path class="cls-1" d="M309.02,296.38c-.42-.48-10.18-11.86-1.65-20.11.6-.58.71-1.51.25-2.22-.46-.71-1.35-.99-2.13-.68-9.49,3.77-11.08,9.68-10.74,13.97.52,6.5,11.03,11.29,12.23,11.81.23.1.47.15.7.15.55,0,1.08-.26,1.42-.72.49-.66.45-1.58-.1-2.2ZM298.27,287.06c-.22-2.71.67-5.01,2.69-6.94-1.23,4.21-.29,8.58,1.36,12.23-2.17-1.65-3.91-3.54-4.05-5.29Z"/>
      </g>
      <g>
        <path class="cls-1" d="M437.13,107.42c-21.29-20.76-67.15-26.08-74.59-23.34-7.03,2.59-10.74,6.67-10.94,6.89-.65.72-.6,1.83.12,2.48.72.65,1.83.6,2.49-.12.04-.05,3.35-3.67,9.55-5.95,5.57-2.05,50.13,2.29,70.91,22.56,17.7,17.26,9.14,37.69,7.25,41.61-.42.88-.06,1.93.82,2.35.25.12.51.18.76.18.65,0,1.28-.37,1.59-.99,2.08-4.3,11.47-26.72-7.96-45.66Z"/>
        <path class="cls-1" d="M434.89,117.44c-.63-.74-1.74-.82-2.48-.19-.74.63-.83,1.74-.2,2.48.08.09,7.78,9.33,7.24,23.6-.04.97.72,1.79,1.69,1.82.02,0,.04,0,.07,0,.94,0,1.72-.75,1.76-1.69.59-15.7-7.73-25.61-8.08-26.02Z"/>
        <path class="cls-1" d="M462.99,304.55c-1.02.03-3.13-.3-3.78-.43-.65-.12-2.1.15-2.29,1.5-.26,1.8.99,2.25,1.54,2.38s3,.51,4.26.51c.14,0,.28,0,.41,0,1.09-.04,1.95-.95,1.91-2.05-.04-1.09-.92-1.96-2.05-1.91Z"/>
        <path class="cls-1" d="M368.77,277.65c-.13-7.45-.92-16.74-2.14-19.3-2.07-4.36-11.71-8.26-13.63-8.99-1.02-.39-2.17.12-2.56,1.14-.39,1.02.12,2.17,1.14,2.56,4.14,1.6,10.44,4.82,11.47,6.99.63,1.32,1.6,8.69,1.76,17.67.19,10.98-1.01,16.13-1.87,16.91-3.85,3.52-15.62,9.53-18.66,10.13-1.07.21-1.77,1.26-1.56,2.33.19.94,1.01,1.59,1.94,1.59.13,0,.26-.01.39-.04,4-.79,16.34-7.23,20.56-11.09,2.29-2.09,3.35-8.79,3.15-19.9Z"/>
        <path class="cls-1" d="M364.28,251.1c-.42-1.19-1.32-4.07-1.49-5.03-.16-.96-1.07-1.6-2.03-1.44-.96.16-1.6,1.07-1.44,2.03.24,1.43,1.35,4.79,1.64,5.61.26.72.93,1.18,1.66,1.18.19,0,.39-.03.59-.1.92-.32,1.4-1.33,1.08-2.25Z"/>
        <path class="cls-1" d="M401.19,253.99c-.13,0-12.51-.52-17.06-1.31-5.17-.9-14.69-7.73-17.92-10.28-.86-.68-2.1-.53-2.78.33-.68.86-.53,2.1.32,2.78.51.4,12.48,9.81,19.7,11.07,4.81.84,17.24,1.36,17.77,1.38.02,0,.05,0,.07,0,1.06,0,1.94-.84,1.98-1.91.04-1.09-.99-2.02-2.08-2.06Z"/>
        <path class="cls-1" d="M461.2,202.37c-.51-10.16-12.51-40.46-19.61-57.62l-.36-.86c-1.75-4.25-3.93-9.54-11.96-18.36-11.98-13.15-37.19-19.26-38.27-19.52-1.06-.25-2.13.4-2.39,1.46-.26,1.06.4,2.13,1.46,2.39.25.06,25.11,6.09,36.27,18.34,7.56,8.3,9.51,13.03,11.23,17.2l.36.87c11.93,28.79,18.97,49.32,19.32,56.3.87,17.42-10.38,45.75-16.06,48.11-4,1.67-14.35,2.75-25.56,3.14-.72.03-1.8.66-1.73,2,.08,1.43,1.14,1.99,1.92,1.96,4.12-.14,21.17-1.13,26.89-3.45,8.33-3.38,19.35-34.54,18.49-51.97Z"/>
        <path class="cls-1" d="M351.07,94.81c-.51-.16-16.17-4.78-35.06,4.16-9.87,4.67-21.39,19.6-30.8,39.93-9.14,19.75-13.96,39.76-12.58,52.22,1.51,13.65,6.7,17.9,8.88,19.1.99,3.09,4.98,14.49,11.32,19.75,9.45,7.83,19,11.78,28.41,11.78.76,0,1.53-.03,2.29-.08.97-.07,1.7-.91,1.64-1.88-.07-.97-.9-1.71-1.88-1.64-9.22.63-18.71-3.04-28.21-10.9-6.39-5.3-10.39-18.66-10.43-18.8-.16-.53-.59-.97-1.1-1.16-.06-.02-5.84-2.38-7.42-16.57-2.85-25.74,22.28-79.55,41.38-88.58,17.53-8.29,32.37-4.02,32.5-3.98.92.29,1.91-.22,2.2-1.15.29-.93-.22-1.92-1.15-2.21Z"/>
        <path class="cls-1" d="M384.17,93.99c-.58-.78-1.68-.94-2.46-.36-.78.58-.94,1.68-.36,2.46,4.67,6.27,12.38,19.48,11.65,37.53-.65,15.95-24.97,35.8-25.22,36-.76.61-.87,1.72-.26,2.48.35.43.86.65,1.37.65.39,0,.78-.13,1.11-.39,1.05-.85,25.8-21.06,26.52-38.6.78-19.14-7.4-33.14-12.34-39.78Z"/>
        <path class="cls-1" d="M366.7,121.32c-.33-.92-1.33-1.39-2.24-1.07-.92.32-1.4,1.33-1.07,2.25.05.14,4.92,14.38.57,36.49-2.58,13.11-10.41,28.68-10.49,28.83-.44.87-.09,1.93.78,2.36.25.13.53.19.79.19.64,0,1.26-.35,1.57-.97.33-.65,8.13-16.15,10.81-29.74,4.55-23.12-.49-37.73-.71-38.34Z"/>
        <path class="cls-1" d="M356.99,218.53c-2.79-3.6-9.89-13.79-10.05-18.69,7.02-14.13,7.1-33.37-.09-53.16-.33-.91-1.34-1.39-2.25-1.05-.91.33-1.39,1.34-1.05,2.26,7.86,21.62,6.52,43.25-3.48,56.44-.59.77-.44,1.88.34,2.47.32.24.69.36,1.06.36.53,0,1.06-.24,1.4-.7.53-.71,1.04-1.44,1.53-2.18,2.5,6.86,8.92,15.26,9.82,16.41.35.45.87.68,1.39.68.38,0,.76-.12,1.08-.37.77-.6.91-1.7.31-2.47Z"/>
        <path class="cls-1" d="M360.08,239.52c-.91-.59-2.14-.33-2.74.58-.2.3-5.02,7.41-16.82,6.86-7.18-.33-13.08-5.62-15.74-10.71-2.15-4.11-2.39-8.22-.64-11.01,6.87-10.94,25.4-2.4,25.59-2.31.99.46,2.17.04,2.63-.95.46-.99.04-2.17-.95-2.63-.89-.42-21.9-10.12-30.63,3.79-2.54,4.05-2.37,9.51.48,14.95,3.89,7.44,11.38,12.48,19.07,12.83.5.02.99.03,1.47.03,13.12,0,18.63-8.34,18.86-8.71.59-.92.32-2.13-.59-2.72Z"/>
      </g>
      <g>
        <path class="cls-1" d="M441.23,213.27c-.1-.97-.99-1.67-1.94-1.56-.97.1-1.67.97-1.56,1.94.85,7.85.16,16.98-2.22,18.05-.57.26-1.7-.09-3.01-.94-5.11-3.31-11.11-12.47-11.11-15.18,0-2.15,1.54-4.44,4.11-6.14,3.48-2.3,7.88-2.86,11.2-1.43.89.38,1.93-.03,2.31-.92.38-.89-.03-1.93-.92-2.31-4.45-1.91-10.01-1.25-14.53,1.73-3.56,2.35-5.69,5.74-5.69,9.08,0,4.44,7.01,14.44,12.72,18.14,1.64,1.06,3.14,1.59,4.48,1.59.67,0,1.29-.13,1.88-.4,6.01-2.7,4.62-18.5,4.28-21.64Z"/>
        <path class="cls-1" d="M430.5,191.49c.53-7-3.14-9.67-6.68-12.25-.59-.43-1.2-.88-1.82-1.36-4.54-3.56-6.04-6.72-7.09-10.98-.26-1.06-1.33-1.71-2.4-1.45-1.06.26-1.71,1.33-1.45,2.4,1.19,4.83,3.09,8.92,8.49,13.15.65.51,1.3.98,1.93,1.44,3.39,2.46,5.43,3.95,5.07,8.75-.3,3.92.04,6.26.06,6.36.15.98.99,1.69,1.95,1.69.1,0,.19,0,.29-.02,1.08-.16,1.83-1.16,1.67-2.24,0-.02-.29-2.06-.03-5.48Z"/>
        <path class="cls-1" d="M430.59,159.05c-2.74-4.29-6.89-3.46-8.3-.65-1.41,2.81,2.16,10.54,7.1,10.44,2.96-.07,2.73-7.4,1.2-9.79Z"/>
        <path class="cls-1" d="M389.94,168.46c-3.36-.69-7.86,3.69-6.53,9.15.97,3.96,6.61,7.54,9.33,4.84,2.72-2.7,2.35-12.93-2.81-13.99Z"/>
        <path class="cls-1" d="M429.19,133.77c-.14-.21-3.61-5.12-9.5-5.73-5.96-.62-9.62,3.72-9.78,3.9-.62.75-.51,1.85.23,2.47.74.62,1.85.52,2.48-.22.11-.13,2.66-3.08,6.7-2.65,4.26.44,6.95,4.2,6.97,4.24.34.49.89.76,1.45.76.35,0,.7-.1,1-.31.8-.55,1-1.65.44-2.45Z"/>
      </g>
      <g>
        <path class="cls-1" d="M514.67,601.93c-1.1-.06-2.03.76-2.1,1.85-1.01,15.69-10.54,62.66-27.97,100.15-.46.99-.03,2.17.96,2.63.27.13.55.19.83.19.75,0,1.46-.42,1.8-1.15,17.86-38.43,27.26-85.11,28.33-101.56.07-1.09-.76-2.03-1.85-2.1Z"/>
        <path class="cls-1" d="M332.12,714.1c-.02-.19-2.11-19.01-7.1-40.87-4.89-21.41-.5-60.86-.46-61.26.12-1.09-.66-2.07-1.74-2.19-1.08-.12-2.07.66-2.19,1.74-.19,1.64-4.51,40.51.53,62.58,4.94,21.62,7,40.23,7.02,40.42.11,1.01.97,1.76,1.97,1.76.07,0,.15,0,.22-.01,1.09-.12,1.87-1.1,1.75-2.18Z"/>
        <path class="cls-1" d="M456.33,656.39c-.64.05-10.79.89-21.67,5.35l9.16-50.02c.18-1.08-.55-2.1-1.63-2.28-1.08-.18-2.1.55-2.28,1.63l-9.3,50.84c-.09.54.05,1.07.35,1.48-4.44,2.16-8.84,4.96-12.61,8.6-.79.76-.81,2.01-.05,2.8.39.4.91.6,1.42.6s.99-.18,1.38-.56c2.14-2.07,4.53-3.84,7.02-5.37-1.96,2.71-17.52,28.85-18.39,42.41-.07,1.09.76,2.03,1.85,2.1.04,0,.09,0,.13,0,1.04,0,1.91-.81,1.97-1.85.84-13.02,17.65-40.35,17.82-40.58.65-.88.46-2.12-.42-2.77-.34-.25-.74-.37-1.13-.38,12.34-6.86,26.5-8.05,26.68-8.06,1.09-.09,1.91-1.04,1.82-2.13-.08-1.09-1.03-1.91-2.13-1.82Z"/>
        <path class="cls-1" d="M462.49,608.3c-1.08-.16-2.09.59-2.25,1.67-.04.28-4.23,23.03-8.54,30.48-3.42,5.91-10.54,9.02-10.61,9.05-1.01.43-1.48,1.59-1.05,2.6.32.75,1.05,1.21,1.82,1.21.26,0,.52-.05.77-.16.34-.14,8.4-3.63,12.49-10.71,4.69-8.1,8.85-30.7,9.03-31.88.16-1.08-.59-2.09-1.67-2.25Z"/>
      </g>
      <g>
        <path class="cls-1" d="M515.04,518.45c-.28-.97-1.7-1.74-2.85-.99-1.29.84-1.01,2.21-.79,2.88.21.67,10.57,32.31,7.79,37.15-5.98,10.39-5.54,14.34-5.35,16.53.18,2.19.84,23.81.19,26.39-2.36,1.23-14.47,2.27-24.27,3.12-8.7.75-19.46,1.53-26.67,2.63-14.88,2.28-127.53,2.68-140.1,2.72-.74-1.47-1.96-4.88-.92-9.96,1.61-7.84,3.51-21.46,3.53-21.6.1-.74-.22-1.47-.83-1.89-.1-.07-10.38-7.38-10.45-15.97v-.21c-.18-22.28.35-55.08-3.19-67.42-.3-1.05-1.4-1.66-2.45-1.36-1.05.3-1.66,1.4-1.36,2.45,3.8,13.24,2.93,53.66,3.03,66.36v.21c.07,8.95,8.25,16.17,11.15,18.45-.49,3.44-2.01,13.8-3.32,20.2-1.78,8.65,1.93,13.72,2.09,13.93.37.5,1.59.79,1.59.79,5.13-.01,125.85-.32,141.82-2.77,7.08-1.08,17.78-1.85,26.42-2.6,20.79-1.79,26.2-2.53,27.42-5.12,1.53-3.24.34-28.29.25-28.82-.08-.53-.46-4.85,4.85-14.07,3.65-6.35-7.3-40.05-7.58-41.02Z"/>
        <path class="cls-1" d="M520.19,476.64c-.33-.85-.71-1.67-1.13-2.46.01-.17.01-.34-.02-.52-1.94-10.27-1.08-34.99-.16-61.16,1.18-33.45,2.39-68.04-2.06-78.92-4.77-11.66-15.92-16.47-25.75-20.71-1.39-.6-2.76-1.19-4.1-1.79-4.91-2.21-8.72-4.83-11.78-6.94-4.15-2.85-7.14-4.91-9.71-3.09-1.66,1.18-2.7,3.88-4.27,8.19-.5,1.38-1.02,2.81-1.54,4.04-.43,1.01.04,2.17,1.05,2.6,1.01.43,2.17-.04,2.6-1.05.56-1.33,1.1-2.81,1.62-4.24.76-2.09,2.01-5.54,2.77-6.26.84.04,3.27,1.71,5.24,3.07,3.03,2.08,7.17,4.93,12.4,7.29,1.36.61,2.75,1.21,4.16,1.82,9.58,4.13,19.49,8.41,23.65,18.57,4.13,10.09,2.87,45.78,1.77,77.28-.77,21.94-1.51,42.86-.57,55.45-1.87-1.97-3.95-3.79-6.12-5.62.03-.15.06-.3.06-.45.02-6.5.32-18.85,2.07-28.52,2.76-15.27-5.93-44.04-9.31-49.75-1.88-3.18,1.43-14.23,4.39-21.06.43-1-.03-2.17-1.03-2.6-1-.43-2.17.03-2.6,1.03-1.32,3.06-7.75,18.6-4.17,24.65,3.25,5.48,11.27,33.47,8.82,47.03-1.57,8.69-2,19.41-2.1,26.4-5.99-5.14-11.84-10.92-15.38-20.77-7.27-20.21-11.16-29.21-12.62-32.6l-.2-.46c-1.35-3.15-3.91-3.92-5.14-4.29-.16-.05-.3-.09-.42-.13-1.03-.37-2.16.15-2.54,1.18-.37,1.03.16,2.16,1.18,2.54.19.07.4.13.63.2,1.04.31,2.02.61,2.64,2.06l.2.46c1.45,3.36,5.3,12.28,12.53,32.37,4.42,12.28,12.26,18.86,19.17,24.67,5.31,4.46,9.89,8.3,12.09,13.93,4.08,10.45-3.96,46.71-13.13,50.68-12.12,5.24-21.96-3.16-30.65-10.57-1.26-1.07-2.48-2.12-3.67-3.09-4.44-3.61-6.31-10.82-9.15-21.74-1.56-6.02-3.34-12.85-5.99-20.86-6.36-19.24-21.36-59.62-21.51-60.03-.38-1.03-1.53-1.55-2.55-1.17-1.03.38-1.55,1.52-1.17,2.55.15.41,15.12,40.72,21.46,59.89,2.61,7.88,4.36,14.64,5.91,20.61,3.03,11.67,5.04,19.38,10.48,23.81,1.17.95,2.36,1.97,3.6,3.02,7.06,6.02,15.45,13.19,25.58,13.19,2.92,0,5.99-.6,9.21-1.99,12.04-5.21,19.68-44.43,15.25-55.76Z"/>
        <path class="cls-1" d="M408.52,419.01c-1.03-.36-2.16.19-2.52,1.22-5.11,14.74-17.5,50.06-22.15,59.57-2.91,5.95-4.26,12.33-5.57,18.5-2.13,10.09-3.97,18.81-11.86,23.87-5.63,3.61-9.11,6.93-11.9,9.6-4.27,4.07-6.41,6.12-12.3,5.52-9.34-.95-29.77-40.03-35.84-58.82-2.56-7.91-5.83-18.64-8.99-29.01-3.79-12.45-7.72-25.33-10.48-33.56-1.24-3.71-3.1-8.02-5.06-12.59-6.08-14.16-13.65-31.78-9.54-45.83,5.11-17.43,14.21-30.03,23.19-32.09,5.32-1.22,15.71-7.42,24.88-12.89,5.39-3.22,12.07-7.2,13.77-7.6.93.27,4.15,1.62,7.55,3.05,9.07,3.8,41.97,15.96,42.42,16.08.68.19,1.97-.1,2.23-1.4.26-1.29-.69-2.33-1.37-2.58-.69-.26-32.69-11.95-41.75-15.76-6.48-2.72-7.96-3.31-8.83-3.37-1.93-.15-5.72,2.01-16.05,8.18-8.48,5.06-19.03,11.35-23.74,12.43-10.51,2.41-20.52,15.76-26.11,34.84-4.52,15.41,3.36,33.76,9.7,48.5,1.93,4.49,3.75,8.73,4.94,12.29,2.74,8.18,6.66,21.03,10.45,33.45,3.17,10.39,6.44,21.14,9.01,29.08,4.94,15.29,26.1,60.21,39.21,61.54.81.08,1.57.12,2.28.12,6.11,0,9.13-2.88,13.15-6.71,2.67-2.55,6-5.72,11.31-9.13,9.28-5.96,11.38-15.88,13.6-26.38,1.25-5.93,2.55-12.07,5.25-17.58,4.75-9.7,17.2-45.2,22.34-60.01.36-1.03-.19-2.16-1.22-2.52Z"/>
        <path class="cls-1" d="M467.97,406.19c-.06-.23-5.67-23.1-6.73-31.84-1.05-8.68-1.68-46.24-1.45-52.35.03-.9-.15-1.77-.49-2.62,4.07-1.91,5.27-6.83,1.54-9.84.74-1.42-.22-3.11-.59-4.55-1.11-7.5,2.46-14.99-3.85-21.06.12-.63-.07-1.3-.57-1.78-7.59-8.27-21.13-31.1-30.49-25.78-4.29-1.46-23.24-7.4-27.08.19-3.13,6.19-18.22,31.09-19.43,33.08-4.54,2.1,7.37,42.91,9.31,55.63,1.78,12.42-2.54,28.65-2.58,28.82-.35,1.23.63,2.51,1.91,2.5.87,0,1.67-.58,1.91-1.46.19-.7,4.57-17.17,2.68-30.41-1.36-10.9-11.76-45.4-10.1-52.64.86-1.3,16.36-26.94,19.83-33.73,1.41-2.79,10.69-1.57,18.57.64-7.03,3.44-13.68,4.69-20.19,8.86-5.14,3.34-6.49,9.69-8.04,17.04-.86,4.05-1.83,8.64-3.56,13.22-.92,2.43-.32,4.82,1.58,6.41,3.41,2.72,8.82,2.16,12.6-.14,5.49-3.33,9.38-11.21,11.05-16.91,6.14-3.2,14.03-7.1,20.12-12.02.18-.14.73-.26,1.72-.1,5.63.92,16.75,8.97,19.47,13.32,1.58,2.44,1.25,5.7,1.03,9.17-4.26-5.57-15.57-14.5-22.17-11.74-4.91,2.39-14.32,3.4-18.33,6.93-3.27,2.54-11.82,15.22-15.19,18.84-2.07,1.72-2.42,4.41-.88,6.68,2.43,3.71,8.6,4.65,12.6,1.98,3.91,5.23,13.11,6.43,19.71,2.07.92.76,2.25,1.62,3.69,2.35-.96,3.02-2.58,7.38-2.6,7.43-.41.84,1.04,12.84-.11,22.78-1.99,16.54-9.48,21.38-15.5,26.05-5.24,4.03-12.92,24.68-13.77,27.02-.38,1.11.15,2,.94,2.41.94.49,2.24.29,2.78-1.05,2.58-7.05,7.28-18.2,10.66-23.14,2.56,1.53,8.42,5.33,10.28,8.01,1.95,2.81,3.24,8.88,3.58,10.98.17,1.08,1.21,1.82,2.27,1.64,1.08-.17,1.82-1.18,1.65-2.27-.05-.34-1.37-8.49-4.23-12.61-2.27-3.27-8.04-7.04-10.68-8.66,16.73-11.19,17.47-30.03,16.02-50.2.42-1.14,1.61-4.4,2.44-6.98,1.4.49,3.07.23,3.34-1.47.15-1.08-.61-2.08-1.7-2.23-.63-.09-1.34-.3-2.06-.59-.01,0-.03,0-.04-.02-1.38-.55-2.78-1.36-3.73-2.01.37-.47.71-1.09.92-1.53.21-.44.3-1.67-1.02-2.31-1.37-.66-2.22.29-2.6.84-.3.43-.93,1.68-5.28,3.48-5.19,2.15-10.97-.37-12.18-3.05-.61-1.35.23-2.6,2.49-3.71,3.62-1.77,6.35-3.95,8.54-5.69,4.44-3.54,6.01-4.53,9.49-1.97,5.2,4.2,19.98,10.59,20.37,15.76-.24,6.32.37,43.89,1.48,52.98,1.09,8.97,6.58,31.36,6.82,32.31.33,1.24,1.43,1.65,2.38,1.43s1.75-1.08,1.46-2.37ZM436.3,271.42c-2.06-.34-3.7-.02-4.87.94-5.14,4.19-11.15,7.14-16.7,10.19.04-2.66-3.88-2.74-3.96-.08,0,3.7-4.25,14.97-10.06,18.5-3.06,1.86-6.54,1.7-8.01.48-.43-.36-.82-.87-.41-1.96,1.84-4.87,2.84-9.61,3.73-13.8,1.43-6.76,2.56-12.09,6.33-14.54,8.13-4.97,15.55-5.71,24.71-11.22,4.07-2.36,12.54,7.97,18.11,15.21-3.19-1.89-6.37-3.3-8.86-3.71ZM430.01,300.67c-.18.13-.33.28-.45.45-5.21,2.09-8.23,6.49-13.88,9.07-3.83,1.88-5.05,4.48-4.89,6.8-.27.02-.54.09-.8.23-3.1,1.68-6.14.54-7.13-.93-.52-.76-.21-1.12.14-1.41,2.87-2.62,12.23-16.56,15.22-18.86,3.74-3,13.06-4.03,17.56-6.41.62-.31,2.76-.16,6.17,1.55,4.94,2.48,10.27,7.06,13.2,12.22-4.22-4.76-7.01-7.67-9.24-8.12-6.08-1.24-14.9,4.74-15.89,5.42ZM459.11,314.26c-.19.64-.97,1.38-2.05,1.78-2.73-2.91-7.17-5.59-11.78-8.36-3.59-2.02-6.27-4.08-9.35-5.95,2.95-1.57,6.71-3.1,9.17-2.6,1.34.36,5.4,4.96,7.83,7.72,2.03,2.3,3.94,4.47,5.46,5.83.93.84.77,1.4.71,1.59Z"/>
        <path class="cls-1" d="M457.9,411.59c5.54,0,10.06-.99,11.63-3.81.53-.96.19-2.16-.77-2.69-.96-.53-2.16-.19-2.69.77-1.94,3.49-20.02,1.44-35.69-2.67-1.06-.27-2.14.36-2.42,1.41-.28,1.06.35,2.14,1.41,2.42,5.34,1.4,18.57,4.58,28.52,4.58Z"/>
        <path class="cls-1" d="M409.27,410.92c-8.23-8.85-17.47-27.65-19.98-35.82-1.05-3.41-2.21-8.12-4.51-8.12s-5.28,2.03-6,4.63c-.45,1.5-8.95,22.12-14.58,35.76l-3.84,9.31c-2.55,6.2-6.16,13.36-9.83,19.83-3.25-8.19-7.17-33.41-9.18-51.21-.12-1.09-1.11-1.87-2.19-1.74-1.09.12-1.87,1.1-1.74,2.19.9,7.94,5.42,45.84,10.78,54.77-4.19,6.97-8.18,12.57-10.52,14.3-1.65,1.23-3.87,2.56-6.21,3.98-5.5,3.32-11.19,6.76-13.39,10.76-2.16,3.93-1.7,12.44-1.33,19.27.16,2.97.31,5.78.14,6.91-.16,1.08.58,2.09,1.67,2.25.1.01.2.02.29.02.96,0,1.81-.7,1.96-1.69.23-1.53.08-4.26-.11-7.71-.31-5.66-.77-14.21.85-17.16,1.68-3.07,7.14-6.37,11.96-9.28,2.43-1.47,4.72-2.85,6.52-4.19,5.9-4.38,18.12-25.54,23.99-39.8l3.84-9.31c8.11-19.67,14.35-34.83,14.73-36.21.15-.53.88-1.03,1.45-1.25,1.28,4.69,7.54,25.38,22.25,42.1.72.82,1.97.9,2.79.18.82-.72.92-1.99.18-2.79Z"/>
      </g>
    </g>
  </g>
</svg>