<?xml version="1.0" encoding="UTF-8"?>
<svg id="_レイヤー_2" data-name="レイヤー_2" xmlns="http://www.w3.org/2000/svg" viewBox="0 0 718.95 770.87">
  <defs>
    <style>
      .cls-1 {
        fill: #7bd3ff;
      }

      .cls-1, .cls-2, .cls-3, .cls-4, .cls-5, .cls-6 {
        stroke: #3b50a8;
        stroke-linecap: round;
        stroke-linejoin: round;
        stroke-width: 7.75px;
      }

      .cls-2 {
        fill: #ffa9a9;
      }

      .cls-3, .cls-4 {
        fill: none;
      }

      .cls-4 {
        stroke-dasharray: 42.5;
      }

      .cls-5 {
        fill: #fff;
      }

      .cls-6 {
        fill: #ffef9f;
      }

      .cls-7 {
        fill: #d7e5ff;
      }
    </style>
  </defs>
  <g id="_xFF91_饑1">
    <g>
      <g>
        <g>
          <path class="cls-4" d="M431.41,757.06c-39.31,9.34-80.84,12.33-123.31,7.94-130.33-13.49-237.77-93.27-292.29-202.41"/>
          <path class="cls-4" d="M648.3,186.34c49.19,70.17,74.3,157.71,64.78,249.65-4.9,47.32-18.53,91.62-39.14,131.46"/>
          <path class="cls-4" d="M84.01,138.27C157.08,64.64,260.43,22.29,371.12,29.89"/>
        </g>
        <circle class="cls-7" cx="346.08" cy="398" r="271.3"/>
      </g>
      <g>
        <g>
          <polyline class="cls-5" points="592.84 208.05 617.4 228.81 460.83 366.2 304.25 228.81 327.96 208.77"/>
          <polyline class="cls-5" points="592.84 164.56 617.4 185.32 460.83 322.71 304.25 185.32 327.96 165.28"/>
          <polygon class="cls-6" points="460.83 281.09 318.83 156.49 460.83 36.45 602.83 156.49 460.83 281.09"/>
        </g>
        <path class="cls-2" d="M374.82,114.22h13.48c1.53,0,2.86,1.01,3.32,2.48,1.23,3.87,2.78,7.6,4.62,11.15.71,1.36.49,3.02-.6,4.1l-9.54,9.54c-2.55,2.55-2.55,6.69,0,9.24l17.8,17.8c2.55,2.55,6.69,2.55,9.24,0l9.54-9.54c1.08-1.08,2.74-1.3,4.1-.6,3.55,1.84,7.28,3.39,11.15,4.62,1.46.46,2.48,1.79,2.48,3.32v13.48c0,3.61,2.92,6.53,6.53,6.53h25.17c3.61,0,6.53-2.92,6.53-6.53v-13.48c0-1.53,1.01-2.86,2.48-3.32,3.87-1.23,7.6-2.78,11.15-4.62,1.36-.71,3.02-.49,4.1.6l9.54,9.54c2.55,2.55,6.69,2.55,9.24,0l17.8-17.8c2.55-2.55,2.55-6.69,0-9.24l-9.54-9.54c-1.08-1.08-1.3-2.74-.6-4.1,1.84-3.55,3.39-7.28,4.62-11.15.46-1.46,1.79-2.48,3.32-2.48h13.48c3.61,0,6.53-2.92,6.53-6.53v-25.17c0-3.61-2.92-6.53-6.53-6.53h-13.48c-1.53,0-2.86-1.01-3.32-2.48-1.23-3.87-2.78-7.6-4.62-11.15-.71-1.36-.49-3.02.6-4.1l9.54-9.54c2.55-2.55,2.55-6.69,0-9.24l-17.8-17.8c-2.55-2.55-6.69-2.55-9.24,0l-9.54,9.54c-1.08,1.08-2.74,1.3-4.1.6-3.55-1.84-7.28-3.39-11.15-4.62-1.46-.46-2.48-1.79-2.48-3.32v-13.48c0-3.61-2.92-6.53-6.53-6.53h-25.17c-3.61,0-6.53,2.92-6.53,6.53v13.48c0,1.53-1.01,2.86-2.48,3.32-3.87,1.23-7.6,2.78-11.15,4.62-1.36.71-3.02.49-4.1-.6l-9.54-9.54c-2.55-2.55-6.69-2.55-9.24,0l-17.8,17.8c-2.55,2.55-2.55,6.69,0,9.24l9.54,9.54c1.08,1.08,1.3,2.74.6,4.1-1.84,3.55-3.39,7.28-4.62,11.15-.46,1.46-1.79,2.48-3.32,2.48h-13.48c-3.61,0-6.53,2.92-6.53,6.53v25.17c0,3.61,2.92,6.53,6.53,6.53ZM423.9,95.11c0-19.67,15.95-35.62,35.62-35.62s35.62,15.95,35.62,35.62-15.95,35.62-35.62,35.62-35.62-15.95-35.62-35.62Z"/>
      </g>
      <g>
        <g id="Check_balances">
          <rect class="cls-1" x="3.88" y="174.82" width="225.62" height="381.48" rx="17.77" ry="17.77"/>
          <g>
            <line class="cls-3" x1="3.88" y1="219.69" x2="227.12" y2="219.69"/>
            <line class="cls-3" x1="3.88" y1="521.47" x2="229.49" y2="521.47"/>
            <path class="cls-3" d="M89.12,199.11h50.16"/>
          </g>
        </g>
        <g>
          <g>
            <polygon class="cls-5" points="4.29 521.47 4.29 220.42 228.19 220.42 228.19 220.42 228.19 521.47 4.29 521.47"/>
            <line class="cls-5" x1="28" y1="282.95" x2="28" y2="264.03"/>
            <line class="cls-5" x1="27.99" y1="320.78" x2="28" y2="301.87"/>
            <line class="cls-5" x1="56.67" y1="331.72" x2="37.6" y2="331.72"/>
            <line class="cls-5" x1="95.01" y1="331.72" x2="75.59" y2="331.72"/>
            <line class="cls-5" x1="132.84" y1="331.72" x2="113.93" y2="331.72"/>
            <line class="cls-5" x1="170.68" y1="331.72" x2="151.76" y2="331.72"/>
            <path class="cls-5" d="M204.48,319.14v7.53c0,2.79-1.1,5.05-2.46,5.05h-12.43"/>
            <line class="cls-5" x1="204.48" y1="281.3" x2="204.48" y2="300.22"/>
            <path class="cls-5" d="M189.74,251.05h12.28c1.36,0,2.46,2.26,2.46,5.05v6.28"/>
            <line class="cls-5" x1="151.91" y1="251.05" x2="170.82" y2="251.05"/>
            <line class="cls-5" x1="114.07" y1="251.05" x2="132.99" y2="251.05"/>
            <line class="cls-5" x1="76.94" y1="251.05" x2="95.15" y2="251.05"/>
            <line class="cls-5" x1="39.11" y1="251.05" x2="58.02" y2="251.05"/>
            <path class="cls-2" d="M182.12,383.03H50.35c-1.36,0-2.46-2.26-2.46-5.05v-16.99c0-2.79,1.1-5.05,2.46-5.05h131.77c1.36,0,2.46,2.26,2.46,5.05v16.99c0,2.79-1.1,5.05-2.46,5.05Z"/>
            <line class="cls-5" x1="28.44" y1="445.03" x2="28.45" y2="426.11"/>
            <line class="cls-5" x1="28.44" y1="482.87" x2="28.44" y2="463.95"/>
            <line class="cls-5" x1="57.12" y1="493.8" x2="38.04" y2="493.8"/>
            <line class="cls-5" x1="95.45" y1="493.8" x2="76.03" y2="493.8"/>
            <line class="cls-5" x1="133.29" y1="493.8" x2="114.37" y2="493.8"/>
            <line class="cls-5" x1="171.13" y1="493.8" x2="152.21" y2="493.8"/>
            <path class="cls-5" d="M204.93,481.22v7.53c0,2.79-1.1,5.05-2.46,5.05h-12.43"/>
            <line class="cls-5" x1="204.93" y1="443.38" x2="204.93" y2="462.3"/>
            <path class="cls-5" d="M190.19,413.13h12.28c1.36,0,2.46,2.26,2.46,5.05v6.28"/>
            <line class="cls-5" x1="152.35" y1="413.13" x2="171.27" y2="413.13"/>
            <line class="cls-5" x1="114.52" y1="413.13" x2="133.44" y2="413.13"/>
            <line class="cls-5" x1="77.39" y1="413.13" x2="95.6" y2="413.13"/>
            <line class="cls-5" x1="39.55" y1="413.13" x2="58.47" y2="413.13"/>
          </g>
          <line class="cls-5" x1="130.11" y1="293.78" x2="184.24" y2="293.78"/>
          <line class="cls-5" x1="43.32" y1="293.78" x2="109.15" y2="293.78"/>
          <line class="cls-5" x1="104.97" y1="316.78" x2="145.9" y2="316.78"/>
          <line class="cls-5" x1="43.32" y1="316.78" x2="84.01" y2="316.78"/>
        </g>
      </g>
      <g>
        <circle class="cls-2" cx="332.64" cy="441.9" r="38.48" transform="translate(-143.79 160.93) rotate(-22.5)"/>
        <circle class="cls-5" cx="332.64" cy="555.84" r="38.48" transform="translate(-308.19 650.45) rotate(-67.5)"/>
        <circle class="cls-2" cx="332.64" cy="669.78" r="38.48"/>
        <rect class="cls-1" x="408.55" y="414.59" width="224.26" height="53.44"/>
        <rect class="cls-6" x="408.55" y="493.2" width="244.74" height="123.9"/>
        <rect class="cls-1" x="408.55" y="647.7" width="224.26" height="54.87"/>
        <path class="cls-5" d="M529.54,651.96l-63.43-49.52c-.26-.21-.64,0-.63.33l4.39,80.35c.07,1.37,1.54,2.21,2.76,1.57l17.83-9.31c2.28-1.19,5.09-.31,6.28,1.97l25.05,47.98,12.71-6.64-25.05-47.98c-1.19-2.28-.31-5.09,1.97-6.28l17.83-9.31c1.22-.64,1.37-2.32.29-3.17Z"/>
        <circle class="cls-1" cx="332.64" cy="555.84" r="17.53" transform="translate(-308.19 650.45) rotate(-67.5)"/>
        <line class="cls-5" x1="435.83" y1="525.91" x2="474.75" y2="525.91"/>
        <line class="cls-5" x1="498.49" y1="525.91" x2="537.41" y2="525.91"/>
        <line class="cls-5" x1="561.16" y1="525.91" x2="624.81" y2="525.91"/>
        <line class="cls-5" x1="435.83" y1="554.39" x2="560.2" y2="554.39"/>
        <line class="cls-5" x1="435.83" y1="582.88" x2="531.72" y2="582.88"/>
      </g>
    </g>
  </g>
</svg>