<?xml version="1.0" encoding="UTF-8"?>
<svg id="_レイヤー_2" data-name="レイヤー_2" xmlns="http://www.w3.org/2000/svg" viewBox="0 0 354.93 175.84">
  <defs>
    <style>
      .cls-1 {
        font-family: Montserrat-Regular, Montserrat;
        font-size: 18px;
        letter-spacing: .21em;
      }

      .cls-1, .cls-2, .cls-3 {
        fill: #fff;
      }

      .cls-3 {
        font-family: IvyPrestoDisplay-Light, 'IvyPresto Display';
        font-size: 49px;
        font-weight: 300;
        letter-spacing: .05em;
      }
    </style>
  </defs>
  <g id="_レイヤー_1-2" data-name="レイヤー_1">
    <g>
      <g>
        <path class="cls-2" d="M154.03,30.25c15.4,15.4,24.32,34.75,26.7,54.5C179.28,37.7,140.69,0,93.28,0c-18.6,0-35.83,5.81-50.01,15.7C77.27-5.37,123.43-.35,154.03,30.25Z"/>
        <path class="cls-2" d="M32.98,144.5c-15.4-15.4-24.32-34.75-26.7-54.5,1.45,47.05,40.05,84.75,87.45,84.75,18.6,0,35.83-5.81,50.01-15.7-34,21.07-80.16,16.05-110.76-14.55Z"/>
      </g>
      <g>
        <polyline class="cls-2" points="44.71 63.68 44.71 63.68 44.71 63.69 44.72 63.7 44.74 63.72 44.78 63.79 44.84 63.88 44.89 63.97 44.97 64.12 45.05 64.25 45.09 64.33 45.13 64.39 45.17 64.44 45.21 64.5 45.24 64.56 45.28 64.62 45.31 64.67 45.34 64.73 45.37 64.79 45.39 64.83 45.42 64.88 45.44 64.92 45.47 64.96 45.49 65 45.51 65.04 45.53 65.07 45.55 65.11 45.57 65.14 45.6 65.18 45.62 65.23 45.65 65.27 45.67 65.31 45.7 65.36 45.72 65.4 45.75 65.44 45.77 65.47 45.79 65.51 45.81 65.54 45.83 65.57 45.85 65.6 45.86 65.63 45.88 65.65 45.89 65.68 45.9 65.7 45.92 65.72 45.93 65.74 45.93 65.76 45.94 65.77 45.95 65.79 45.96 65.8 45.96 65.81 45.96 65.82 45.97 65.82 45.97 65.83 45.97 65.84"/>
        <g>
          <path class="cls-2" d="M52,58.71s0,0,0,0c0,.02-.01.03-.02.05,0,0,0,.01,0,.02.02-.04.03-.06.03-.07Z"/>
          <path class="cls-2" d="M51.98,58.76s.02-.05.02-.05c-.02.06-.02.05-.02.05Z"/>
          <g>
            <path class="cls-2" d="M55.03,56.24s0,0,0,0h0Z"/>
            <path class="cls-2" d="M184.49,174.84c-18.13-.46-34.67-8.85-49.15-19.29-5.87-4.02-12.32-7.13-18.58-10.49-3.92-2.3-8.53-3.38-12.13-6.13,3.42.14,6.75,1.34,9.99,2.44,10.18,3.29,21.14,5.73,30.85,10.13,14.28,5.66,27.97,14.04,43.72,12.81-8.08-.63-15.99-2.45-23.62-5.26-6-2.47-12.74-5.66-18.77-7.99-9.94-4.53-20.61-6.99-30.99-10.22-11.96-3.86-23.61-8.94-34.31-15.61,2.87,1.12,5.31,3.14,8.13,4.41,3.05,1.6,6.36,2.6,9.57,3.82,5.32,2.03,11.07,2.3,16.49,3.94,3.47,1.22,7.21,1.4,10.66,2.7,7.77,2.77,14.95,5.67,22.75,8.07,4.03,1.47,8.36,3.98,13.05,5.49,7.61,2.07,15.6,2.1,23.43,2.31,1.94-.06,3.97.05,5.85-.31-4.75-.16-9.46-.95-14.23-.91-8.69-.27-16.6-2.03-24.2-5.98-8.71-3.19-16.66-5.81-25.72-9.22-3.81-1.59-7.97-1.45-11.82-2.65-5.71-2.24-11.96-2.46-17.65-4.84-12.64-5.1-23.98-13.89-30.65-25.99.07,0,.15-.02.22-.03-4.2-6.03-6.51-13.1-9.32-19.68-1.29-2.95-2.91-5.72-4.52-8.5.82-.45,1.63-.91,2.45-1.36,1.84-1.01,3.58-2.2,5.46-3.16,1.43-.76,2.82-1.68,4.03-2.09,2.48-.92,5.04-1.56,7.61-2.15.87-.28,1.77-.43,2.66-.6,1.25-.3,2.5-.61,3.78-.71-1.04-.07-2.61.1-3.34.17-.98.15-1.99.1-2.96.33-1.26.21-2.54.38-3.79.66-1.19.3-2.36.7-3.53,1.06-1.81.56-3.4,1.57-5.04,2.47-2.12,1.1-3.96,2.6-5.93,3.93-.49.38-1.03.78-1.56,1.16-.28-.49-.57-.98-.84-1.47-.3-.65-.6-1.29-.9-1.93.17.12.43.11.73-.16.24-.2.49-.43.68-.66-.08.06-.17.12-.26.17-.51.28-1.26.85-.89-.13.26-.49.68-.88,1.05-1.3.32-.29.6-.68,1.01-.83-.51.08-.92.49-1.33.79-.4.37-.88.72-1.09,1.24-.07.17-.1.34-.09.48-1.47-3.02-3.1-5.88-5.33-8.51.03,0,.05-.02.08-.03-.02-.03-.04-.05-.05-.08-.02.01-.05.02-.07.04-.03-.03-.05-.06-.08-.09.25-.12.49-.23.76-.32.15-.09.32-.2.47-.31.04-.02.08-.03.13-.05.9-.39,1.78-.84,2.56-1.43.59-.44,1.07-1.01,1.64-1.48.62-.59,1.18-1.25,1.66-1.95.27-.4.47-.84.76-1.23.55-.8.77-1.44.99-1.92-.07.17,0,.02.04-.09,0-.02.02-.05.03-.08,0,0,0-.01,0-.02-.01.02-.05.11-.01.02.12-.29.26-.62.19-.94-.08-.29-.32-.35-.39-.39-.24-.12-.54-.2-.74-.38-.13-.15-.24-.22-.25-.4-.03-.25-.04-.65,0-1.02,0-.01.01-.03.02-.04,0-.01.01-.03.02-.05.01-.02.03-.04.04-.06.53-.67,1.11-1.12,1.72-1.6.65-.58,1.07-.9,1.71-1.36.6-.47,1.98-1.49,3.31-2.27.86-.55,1.67-1.21,2.26-1.6.9-.59,1.46-1.17,2.41-1.93.98-.78,1.79-1.51,2.86-2.28-.59.28-1.13.66-1.71.97-.59.34-1.2.65-1.77,1-.57.34-1.1.76-1.66,1.11-.49.32-1,.61-1.48.94-.9.56-1.81,1.1-2.66,1.74-.04.02-.09.05-.13.07-.84.47-1.7.92-2.49,1.49-.27.19-.59.49-.87.74-1.06.61-1.94,1.52-2.77,2.4-.66.67-1.3,1.36-1.8,2.15-.3.46-.55.96-.81,1.44-.08.08-.15.16-.23.24,0,0-.01,0-.02,0,0,0,0,0,.01,0-.12.12-.23.24-.28.33.17-.11.32-.23.44-.38.87-.23,1.96-.5,2.5-.45,0,0,0,0,.02,0,0,0,0,0,0,0,0,0,0,0,0,0,0,.03,0,.06,0,.08,0,.28,0,.24-.11.55-.17.46-.32.9-.46,1.32-.03.04-.07.09-.1.14-.29.37-.5.78-.74,1.18-.22.33-.24.32-.63.78-.91,1.42-1.1,1.58-1.93,2.66-.07.08-.81,1.03-1.03,1.22-.3.3-.57.48-.93.8-.22.18-.44.39-.65.57-5.11-5.92-.54-14.29-11.28-16.77-4.81-.68-9.26,4.32-13.96,2.29,0,0,0,0,0,0-.05-.02-.1-.03-.15-.03-.01,0-.02,0-.03,0-.02,0-.04-.01-.05-.02,0,0-.01,0-.02,0-.17-.05-.35-.09-.53-.12-3.57-.86-13.97-1.8-19.89.74,7.81-1.88,22.74-3.16,27.05,4.94,3.18,6.74,2.61,13.65,3.72,21.38,2.17,6.91,6.63,13.31,12.6,17.47,5.16,4.08,12.76,3.4,16.84,8.83,4.56,4.53,6.59,10.85,10.88,15.65,4.86,6.36,11.1,11.56,18.52,14.61,3.84,2.44,8.19,4.14,12.51,5.65,7.55,2.74,14.79,6.31,21.76,10.4,6.97,3.22,13.05,7.89,19.4,12.11,14.99,8.82,32.89,16.16,50.51,12.9-3.1.34-6.21.12-9.29-.21ZM44.68,63.7c.29.35.56.84.82,1.33-.3-.46-.58-.9-.82-1.33ZM45.93,65.05c.28-.14.54-.31.82-.45.09-.06.19-.11.29-.16-.05.03-.09.07-.14.1-.07.05-.16.12-.23.17,0,0-.01,0-.02,0-.22.07-.46.23-.67.38-.01-.01-.03-.03-.04-.04Z"/>
          </g>
        </g>
        <polyline class="cls-2" points="44.83 63.81 44.83 63.81 44.84 63.81 44.85 63.83 44.85 63.85 44.88 63.89 44.91 63.96 44.94 64.02 44.99 64.1 45.03 64.18 45.07 64.24 45.09 64.29 45.12 64.33 45.14 64.38 45.17 64.42 45.19 64.46 45.21 64.5 45.23 64.53 45.25 64.57 45.27 64.6 45.29 64.64 45.31 64.67 45.33 64.7 45.34 64.73 45.36 64.76 45.38 64.79 45.39 64.82 45.4 64.84 45.42 64.87 45.43 64.89 45.44 64.91 45.45 64.93 45.46 64.95 45.47 64.97 45.48 64.99 45.5 65.02"/>
        <path class="cls-2" d="M44.76,63.95h0s0,0,0,0h0s0,0,0,0h0s0,0,0,0h0s0,0,0,0h0s0,0,.01.01h0s.02.03.04.05l.04.07.04.06.03.06.03.06.03.05.03.05.03.05.03.05.02.04.02.04.02.04.02.04.02.04.02.04.02.04.02.04.02.03.02.03.02.03v.03s.03.03.03.03v.03s.03.03.03.03v.02s.03.02.03.02v.02s.02.02.02.02v.02s.02.02.02.02h0s0,.02,0,.02h0s0,.01,0,.01h0s0,0,0,0h0s0,0,0-.01v-.03s-.03-.03-.03-.03l-.02-.04-.03-.06-.03-.06-.04-.08-.04-.09-.04-.08-.04-.08-.04-.07-.03-.05-.02-.04-.02-.04-.02-.03v-.03s-.03-.03-.03-.03l-.02-.03-.02-.03-.02-.03-.02-.03-.02-.03v-.03s-.03-.03-.03-.03v-.03s-.02-.02-.02-.02v-.02s-.02-.02-.02-.02v-.02s-.02-.02-.02-.02h0s0-.02,0-.02h0s0-.02,0-.02h0s0,0,0,0h0s0,0,0,0h0s0,0,0,0h0s0,0,0,.01l.02.02.03.03.03.04.04.05.04.06.05.07.05.07.05.07.05.07.05.06.04.06.04.06.04.06.04.05.03.05.03.04.03.04.03.04.03.04.02.03.02.03.02.03.02.03v.02s.03.02.03.02v.02s.02.02.02.02v.02s.01.01.01.01h0s0,.02,0,.02h0s0,.01,0,.01h0s0,0,0,0h0s0,0,0,0h0s0,0,0,0h0s0,0,0,0h0s0,0,0,0h0s0,0,0,0h0s0,0,0,0h0s0,0,0,0h0s0-.01,0-.01h0s0-.02,0-.02h0s-.01-.03-.01-.03l-.02-.02-.03-.04-.03-.05-.04-.07-.06-.09-.06-.09-.06-.08-.05-.08-.05-.07-.04-.06-.04-.06-.04-.06-.03-.05-.03-.05-.03-.05-.03-.04-.03-.04-.02-.04-.02-.03-.02-.02-.02-.02v-.02s-.03-.02-.03-.02h-.01s-.01-.02-.01-.02h-.01s0-.02,0-.02h0s0-.01,0-.01h0s0,0,0,0h0s0,0,0,0h0s0,0,0,0h0s0,0,0,0h0s0,0,0,0h0s0,0,0,0"/>
        <path class="cls-2" d="M48.37,59.38h0v.04h0s0,.02,0,.03h0s0,.06,0,.09l.02.13.03.13.02.11.02.11v.1s.03.09.03.09l.02.09.02.09.02.08.02.07.02.07.02.07.02.07h0s.02.05.03.07h0s.02.05.04.07h0s.03.04.04.06h0s.03.04.05.06h0s.04.04.06.06l.06.06.06.05h0s.04.03.06.04h0s.04.02.06.04l.06.03.06.02.06.02.07.02h.06s.06.02.06.02h.05s.04,0,.04,0h.04s.03,0,.03,0h.03s.02,0,.02,0"/>
        <path class="cls-2" d="M46.83,64.6c.09-.08.16-.17.28-.21-.13.01-.23.11-.34.17,0,0-.01,0-.02.01.03-.02.06-.05.1-.07-.13.05-.25.11-.36.18,0-.01.02-.02.03-.03-.04.04-.09.07-.13.1-.02.02-.05.04-.07.05-.2.14-.42.27-.61.42-.09-.33-.33-.72-.52-1.03-.06-.15-.13-.31-.2-.47-.08-.2-.37-.31-.45-.05,0,.42.28.79.46,1.16.05.06.16.29.23.42.03.07.06.14.09.2,0,0,0,0,0,.01-.03.02-.05.03-.08.05-.05.02-.14.05-.21.09-.08.06-.27.21-.28.22.11-.04.2-.11.31-.16.12-.03.25-.05.36-.11,0,0,0,0,0,0,.02,0,.04,0,.07,0-.03.02-.07.05-.1.07.62-.17,1.19-.54,1.59-1.06-.13.09-.26.19-.4.28.09-.09.17-.18.27-.25Z"/>
        <path class="cls-2" d="M78.47,23.94c-.31.08-.6.22-.91.3-.52.14-1.05.24-1.57.37-1.39.37-1.99.65-3.08,1.13-.56.31-.9.38-1.35.66-.09.05-.17.11-.25.18-.85.43-1.74.94-2.5,1.47-1.22.88-1.87,1.43-3.05,2.5-1.21.97-2.64,2.33-3.27,3.31-.15.19-.98,1.15-1.32,1.71-.32.39-.75,1-1.12,1.61-.41.64-.86,1.25-1.19,1.94-.09.17-.19.33-.24.52.01-.02.02-.05.04-.07.02-.04.05-.07.08-.1-.02.04-.04.08-.07.11.18-.16.48-.47.61-.56,1.64-.95,2.86-2.05,3.84-2.75.74-.58,1.27-1.06,1.86-1.48.61-.39,1.23-.77,1.86-1.14.04.11.07.21.09.32-.02-.05-.03-.09-.05-.13.12.48.08,1.18-.1,1.47,0,0,0,0,0,0,0,0,0,0,0,0,0,0,0,0,0,0,0,0,0,0,0,0,0,0,0,0,0,0-.04.01-.06.03-.09.06,0,0,0,0,0,0,0,0-.02.01-.03.02-.04.03-.08.04-.12.06-2.2,1.21-3.74,2.32-5.21,3.44-1.5,1.08-3.09,2.04-4.55,3.17-.58.45-1.26.95-2.04,1.69-1.12,1.17-2.18,2.41-3.25,3.63-.38.41-.76.82-1.12,1.25-.27.28-.56.54-.78.86-.53.67-1.97,2.73-2.53,4.13-.16.41-.42.83-.58,1.19.36-.47.7-1,1.04-1.5,0,0,0,0,0,0,0,0,0,.01-.01.02.04-.05.08-.1.13-.15,0,0,0,0,0,.01.03-.04.07-.09.11-.13.04-.05.08-.1.13-.15.05-.05.1-.1.14-.15.03-.03.06-.06.09-.09-.2.23-.39.46-.6.68.4-.34.94-.82,1.28-1.09.48-.27,1.24-.89,1.49-1.1,1.06-.7,2.14-1.37,3.11-2.21,1.44-1.13,2.25-1.89,3.71-2.82,1.62-1.11,3.22-1.83,4.27-2.22.29-.11.54-.21.77-.31-.17.08-.35.17-.52.27,1.22-.46,2.69-.78,4-1.11.18-.04.35-.07.53-.11.04,0,.08-.01.11-.02-.74.43-1.42.97-2.03,1.56-.17.15-.34.3-.47.47.01,0,.02-.02.04-.03-.01.02-.03.03-.04.05,0,0,.01,0,.02-.01-.02.02.8-.5,1.19-.81,0,0,0,0,0,0,.01.11.13.19.28.12.19-.12.38-.25.56-.37.07-.02.13-.06.19-.09.2-.14.4-.29.59-.45.91-.55,1.62-1.27,2.66-1.59-.14.01-.29.04-.43.07.02,0,.05-.01.07-.02.17-.04.37-.05.52-.13-.06.02-.13,0-.2,0-.81-.06-1.61.04-2.42.07-.97.07-1.55.08-2.45.4-.53.18-1.07.32-1.59.52-.15.07-.29.15-.43.24.16-.15.31-.31.47-.46.57-.38,1.07-.87,1.42-1.11,1.08-.95,2.2-1.86,3.18-2.9.78-1.05,1.38-1.66,1.96-2.97.35-.69.54-2.13.55-3.23-.04-.5-.1-.94-.16-1.42.04-.23.07-.46.07-.7.22-.13.45-.25.66-.37.8-.41,1.21-.51,2.06-1.02,0,0,0,0-.01,0,.92-.42,1.76-1.02,2.59-1.58.71-.44,1.65-1.19,1.96-1.44.66-.45,1.14-1.1,1.7-1.65-.1.06-.19.12-.29.18Z"/>
        <path class="cls-2" d="M127.22,47.36c-.56.53-1.11,1.1-1.77,1.5,0,0,.01-.01.02-.02-.09.07-.2.12-.3.17.07-.07.14-.13.21-.2-2.24,1.5-4.82,2.15-7.43,3.25-4.04,1.78-9.34,3.81-14,4.1-10.11,2.53-20.66,2.25-30.87,4.2-3.9.56-8.05,1.64-12.14,2.22-3.47.12-7.81,2.37-10.37,4.99-.02,0-.04,0-.07-.01h0c-.82.21-2.94-.35-3.54.51-1.4.19-.85,1.06.3.62-.03.45.24.6.58.62-.02.08-.01.16.01.24-.68.86.45,1.41,1.22,1.36-.09.41.25.78.63.89-1.13-.05-1.26,1.45-.07,1.21.16.88,1.22.36,1.79.22-.75.25-2.21,1.29-.96,1.8-.39.37-.36,1.1.19,1.28-.15.13-.32.31-.44.44-1.09.35-2.22.72-3.27,1.15,1.61-.36,3.21-.72,4.85-.93-.53.79-2.37,1.82-1.73,2.86,1.08.81,3.64-2.53,4.75-3.07,4.47-.13,8.93.4,13.29,1.54,5.47.99,11.05,1.58,16.09,4.13-.91-.79-1.89-.97-2.78-1.4.1.04.2.07.3.1-.99-.59-2.05-1.03-3.16-1.34.02,0,.05,0,.07.01-2.4-.89-4.94-1.44-7.48-1.78,0-.24-.26-.28-.46-.29-3.4-.45-6.63-1.86-9.83-3.04,10.47-.41,20.97,1.68,31.39.26-10.1-.28-20.07-1.6-30.08-2.82.2-.12.4-.24.61-.35,6.79.66,13.68.38,20.49.08,6.35-.79,12.06-2.17,18.37-2.82-.06,0-.13,0-.19-.01,1.63-.19,3.19-.79,4.83-.83-12.18.27-24.3,2.27-36.53,1.55,6.46-1.53,13.15-1.12,19.67-2.39,4.33-.79,8.47-2.35,12.84-3.04,6.18-.6,12.11-2,18.02-3.31-7.71.95-15.04,1.44-22.71,2.27-4.66.37-9.23,1.38-13.87.35-.02-.01-.03-.03-.04-.04,3.6-3.49,10.38-2.16,14.76-3.52,5.25-.76,10.63-1.72,15.53-3.77-.32.17-.7.32-.98.48,4.92-1.25,9.9-3.43,12.88-7.72-.03.02-.06.04-.09.07.53-.55.99-1.15,1.44-1.76ZM50.29,76.74c.18-.14.36-.27.55-.39.24.02.49-.04.73-.09.02.03.05.06.09.09-.46.12-.91.25-1.36.39Z"/>
      </g>
    </g>
    <g>
      <text class="cls-3" transform="translate(116.93 115.67)"><tspan x="0" y="0">SToRy</tspan></text>
      <text class="cls-3" transform="translate(266.93 115.67)"><tspan x="0" y="0">web</tspan></text>
      <text class="cls-1" transform="translate(168.01 147.22)"><tspan x="0" y="0">SOLUTIONS</tspan></text>
    </g>
  </g>
</svg>