<?xml version="1.0" encoding="UTF-8"?>
<svg id="_レイヤー_2" data-name="レイヤー_2" xmlns="http://www.w3.org/2000/svg" viewBox="0 0 352.16 90.84">
  <defs>
    <style>
      .cls-1, .cls-2, .cls-3 {
        fill: #fff;
      }

      .cls-2 {
        font-family: Montserrat-Regular, Montserrat;
        font-size: 18.28px;
        letter-spacing: .21em;
      }

      .cls-3 {
        font-family: IvyPrestoDisplay-Light, 'IvyPresto Display';
        font-size: 49.78px;
        font-weight: 300;
        letter-spacing: .05em;
      }
    </style>
  </defs>
  <g id="_レイヤー_1-2" data-name="レイヤー_1">
    <g>
      <g>
        <path class="cls-1" d="M76.93,15.11c7.69,7.69,12.15,17.35,13.34,27.22C89.54,18.83,70.26,0,46.59,0c-9.29,0-17.9,2.9-24.98,7.84C38.59-2.68,61.65-.18,76.93,15.11Z"/>
        <path class="cls-1" d="M16.47,72.17c-7.69-7.69-12.15-17.35-13.34-27.22.73,23.5,20,42.33,43.68,42.33,9.29,0,17.9-2.9,24.98-7.84-16.98,10.52-40.03,8.02-55.32-7.27Z"/>
      </g>
      <g>
        <polyline class="cls-1" points="22.33 31.8 22.33 31.8 22.33 31.81 22.34 31.82 22.34 31.83 22.36 31.86 22.39 31.9 22.42 31.95 22.46 32.02 22.5 32.09 22.52 32.13 22.54 32.16 22.56 32.19 22.58 32.21 22.6 32.24 22.61 32.27 22.63 32.3 22.64 32.33 22.66 32.36 22.67 32.38 22.68 32.4 22.7 32.42 22.71 32.44 22.72 32.46 22.73 32.48 22.74 32.5 22.75 32.52 22.76 32.54 22.77 32.56 22.79 32.58 22.8 32.6 22.81 32.62 22.82 32.64 22.83 32.66 22.85 32.68 22.86 32.7 22.87 32.72 22.88 32.73 22.89 32.75 22.9 32.76 22.91 32.78 22.91 32.79 22.92 32.8 22.93 32.81 22.93 32.82 22.94 32.83 22.94 32.84 22.95 32.85 22.95 32.86 22.95 32.86 22.95 32.87 22.96 32.87 22.96 32.88 22.96 32.88 22.96 32.88"/>
        <g>
          <path class="cls-1" d="M25.97,29.32s0,0,0,0c0,0,0,.02-.01.02,0,0,0,0,0,.01,0-.02.01-.03.01-.03Z"/>
          <path class="cls-1" d="M25.96,29.35s.01-.03,0-.02c-.01.03-.01.03,0,.02Z"/>
          <g>
            <path class="cls-1" d="M27.48,28.09s0,0,0,0h0Z"/>
            <path class="cls-1" d="M92.14,87.32c-9.05-.23-17.32-4.42-24.55-9.63-2.93-2.01-6.15-3.56-9.28-5.24-1.96-1.15-4.26-1.69-6.06-3.06,1.71.07,3.37.67,4.99,1.22,5.08,1.64,10.56,2.86,15.41,5.06,7.13,2.83,13.97,7.01,21.84,6.4-4.04-.31-7.99-1.22-11.8-2.63-3-1.23-6.36-2.83-9.37-3.99-4.96-2.26-10.29-3.49-15.48-5.1-5.98-1.93-11.79-4.46-17.14-7.8,1.43.56,2.65,1.57,4.06,2.2,1.52.8,3.17,1.3,4.78,1.91,2.66,1.01,5.53,1.15,8.24,1.97,1.73.61,3.6.7,5.33,1.35,3.88,1.38,7.47,2.83,11.36,4.03,2.01.73,4.17,1.99,6.52,2.74,3.8,1.03,7.79,1.05,11.7,1.15.97-.03,1.98.02,2.92-.16-2.37-.08-4.73-.47-7.11-.45-4.34-.14-8.29-1.01-12.09-2.99-4.35-1.6-8.32-2.9-12.85-4.61-1.9-.79-3.98-.73-5.9-1.33-2.85-1.12-5.97-1.23-8.82-2.42-6.31-2.55-11.97-6.94-15.31-12.98.04,0,.07-.01.11-.01-2.1-3.01-3.25-6.54-4.66-9.83-.64-1.47-1.45-2.86-2.26-4.24.41-.23.82-.45,1.23-.68.92-.51,1.79-1.1,2.72-1.58.72-.38,1.41-.84,2.01-1.04,1.24-.46,2.52-.78,3.8-1.08.43-.14.88-.21,1.33-.3.62-.15,1.25-.3,1.89-.35-.52-.03-1.31.05-1.67.09-.49.07-.99.05-1.48.17-.63.11-1.27.19-1.89.33-.59.15-1.18.35-1.76.53-.9.28-1.7.78-2.52,1.23-1.06.55-1.98,1.3-2.96,1.96-.25.19-.51.39-.78.58-.14-.24-.28-.49-.42-.73-.15-.32-.3-.65-.45-.96.08.06.21.05.36-.08.12-.1.25-.21.34-.33-.04.03-.09.06-.13.09-.25.14-.63.43-.45-.06.13-.24.34-.44.53-.65.16-.15.3-.34.5-.42-.26.04-.46.24-.67.39-.2.19-.44.36-.55.62-.04.09-.05.17-.04.24-.73-1.51-1.55-2.94-2.66-4.25.01,0,.03,0,.04-.01,0-.01-.02-.03-.03-.04-.01,0-.03.01-.04.02-.01-.01-.03-.03-.04-.04.13-.06.25-.11.38-.16.08-.04.16-.1.24-.15.02,0,.04-.02.06-.03.45-.2.89-.42,1.28-.72.29-.22.54-.5.82-.74.31-.3.59-.62.83-.98.13-.2.23-.42.38-.61.27-.4.39-.72.49-.96-.04.08,0,0,.02-.04,0,0,0-.02.02-.04,0,0,0,0,0,0,0,.01-.02.05,0,.01.06-.15.13-.31.1-.47-.04-.14-.16-.18-.2-.2-.12-.06-.27-.1-.37-.19-.06-.07-.12-.11-.13-.2-.01-.12-.02-.32,0-.51,0,0,0-.01,0-.02,0,0,0-.02.01-.03,0-.01.01-.02.02-.03.26-.33.55-.56.86-.8.33-.29.53-.45.85-.68.3-.24.99-.74,1.65-1.13.43-.27.83-.6,1.13-.8.45-.29.73-.58,1.21-.97.49-.39.89-.76,1.43-1.14-.3.14-.56.33-.85.48-.29.17-.6.32-.89.5-.29.17-.55.38-.83.56-.24.16-.5.3-.74.47-.45.28-.91.55-1.33.87-.02.01-.04.02-.06.03-.42.24-.85.46-1.24.74-.13.1-.3.24-.44.37-.53.3-.97.76-1.38,1.2-.33.33-.65.68-.9,1.08-.15.23-.27.48-.41.72-.04.04-.08.08-.11.12,0,0,0,0,0,0,0,0,0,0,0,0-.06.06-.11.12-.14.17.08-.05.16-.12.22-.19.44-.12.98-.25,1.25-.23,0,0,0,0,0,0,0,0,0,0,0,0,0,0,0,0,0,0,0,.01,0,.03,0,.04,0,.14,0,.12-.06.28-.08.23-.16.45-.23.66-.02.02-.03.04-.05.07-.14.18-.25.39-.37.59-.11.16-.12.16-.31.39-.45.71-.55.79-.96,1.33-.04.04-.4.51-.51.61-.15.15-.28.24-.46.4-.11.09-.22.2-.33.28-2.55-2.95-.27-7.14-5.63-8.37-2.4-.34-4.63,2.16-6.97,1.15,0,0,0,0,0,0-.02,0-.05-.01-.08-.01,0,0,0,0-.02,0,0,0-.02,0-.03,0,0,0,0,0,0,0-.09-.02-.18-.04-.26-.06-1.78-.43-6.98-.9-9.94.37,3.9-.94,11.36-1.58,13.51,2.47,1.59,3.37,1.3,6.82,1.86,10.68,1.08,3.45,3.31,6.65,6.29,8.72,2.58,2.04,6.37,1.7,8.41,4.41,2.28,2.26,3.29,5.42,5.43,7.82,2.43,3.18,5.55,5.77,9.25,7.29,1.92,1.22,4.09,2.07,6.25,2.82,3.77,1.37,7.38,3.15,10.87,5.19,3.48,1.61,6.52,3.94,9.69,6.05,7.49,4.4,16.43,8.07,25.23,6.44-1.55.17-3.1.06-4.64-.11ZM22.32,31.82c.15.18.28.42.41.67-.15-.23-.29-.45-.41-.67ZM22.94,32.49c.14-.07.27-.16.41-.23.05-.03.1-.05.14-.08-.02.02-.05.03-.07.05-.03.03-.08.06-.11.08,0,0,0,0,0,0-.11.04-.23.11-.34.19,0,0-.01-.01-.02-.02Z"/>
          </g>
        </g>
        <polyline class="cls-1" points="22.39 31.87 22.39 31.87 22.39 31.87 22.4 31.88 22.4 31.89 22.41 31.91 22.43 31.94 22.45 31.97 22.47 32.01 22.49 32.05 22.51 32.08 22.52 32.11 22.53 32.13 22.55 32.15 22.56 32.17 22.57 32.19 22.58 32.21 22.59 32.23 22.6 32.25 22.61 32.27 22.62 32.28 22.63 32.3 22.64 32.31 22.65 32.33 22.65 32.35 22.66 32.36 22.67 32.37 22.68 32.39 22.68 32.4 22.69 32.41 22.69 32.42 22.7 32.43 22.71 32.44 22.71 32.45 22.72 32.46 22.72 32.47"/>
        <path class="cls-1" d="M22.36,31.94h0s0,0,0,0h0s0,0,0,0h0s0,0,0,0h0s0,0,0,0h0s0,0,0,0h0s.01.02.02.03l.02.04.02.03.02.03.02.03v.03s.03.03.03.03v.02s.03.02.03.02v.02s.02.02.02.02v.02s.02.02.02.02v.02s.02.02.02.02v.02s.02.02.02.02v.02s.02.02.02.02v.02s.01.01.01.01h0s0,.03,0,.03h0s0,.03,0,.03h0s0,.02,0,.02h0s0,.02,0,.02h0s0,.01,0,.01h0s0,0,0,0h0s0,0,0,0h0s0,0,0,0h0s0,0,0,0h0s0-.03,0-.03v-.02s-.03-.03-.03-.03l-.02-.03-.02-.04-.02-.04-.02-.04-.02-.04-.02-.03v-.03s-.03-.02-.03-.02v-.02s-.02-.01-.02-.01h0s0-.03,0-.03v-.02s-.02-.02-.02-.02v-.02s-.02-.02-.02-.02v-.02s-.01-.01-.01-.01h0s0-.03,0-.03h0s0-.02,0-.02h0s0-.02,0-.02h0s0-.01,0-.01h0s0-.01,0-.01h0s0,0,0,0h0s0,0,0,0h0s0,0,0,0h0s0,0,0,0h0s.01.03.01.03l.02.02.02.02.02.03.03.03.03.03.02.03.03.04.02.03.02.03.02.03.02.03.02.03.02.02v.02s.03.02.03.02v.02s.03.02.03.02v.02s.02.02.02.02v.02s.02.01.02.01h0s0,.02,0,.02h0s0,.02,0,.02h0s0,.01,0,.01h0s0,0,0,0h0s0,0,0,0h0s0,0,0,0h0s0,0,0,0h0s0,0,0,0h0s0,0,0,0h0s0,0,0,0h0s0,0,0,0h0s0,0,0,0h0s0,0,0,0h0s0,0,0,0h0s0,0,0,0h0s0-.01,0-.01h0s-.01-.03-.01-.03l-.02-.03-.02-.03-.03-.04-.03-.04-.03-.04-.03-.04-.02-.04-.02-.03-.02-.03-.02-.03-.02-.03-.02-.03-.02-.03v-.02s-.03-.02-.03-.02v-.02s-.02-.02-.02-.02h0s0-.02,0-.02h0s0-.02,0-.02h0s0-.01,0-.01h0s0,0,0,0h0s0,0,0,0h0s0,0,0,0h0s0,0,0,0h0s0,0,0,0h0s0,0,0,0h0s0,0,0,0h0s0,0,0,0"/>
        <path class="cls-1" d="M24.16,29.66h0v.02h0s0,.01,0,.02h0s0,.03,0,.04v.06s.02.06.02.06v.06s.02.05.02.05v.05s.01.05.01.05v.05s.02.05.02.05v.04s.02.04.02.04v.04s.02.04.02.04v.03h.01s0,.02.02.03h0s.01.02.02.03h0s.01.02.02.03h0s.02.02.02.03h0s.02.02.03.03l.03.03.03.02h0s.02.01.03.02h0s.02.01.03.02h.03s.03.03.03.03h.03s.03.02.03.02h.03s.03,0,.03,0h.02s.02,0,.02,0h.02s.01,0,.01,0h.01s.01,0,.01,0"/>
        <path class="cls-1" d="M23.39,32.26s.08-.09.14-.1c-.07,0-.11.05-.17.08,0,0,0,0-.01,0,.02-.01.03-.02.05-.04-.06.02-.12.06-.18.09,0,0,0,0,.01-.02-.02.02-.04.03-.07.05-.01,0-.02.02-.04.03-.1.07-.21.13-.31.21-.04-.17-.16-.36-.26-.51-.03-.08-.06-.15-.1-.24-.04-.1-.19-.15-.23-.02,0,.21.14.4.23.58.02.03.08.14.12.21.01.04.03.07.04.1,0,0,0,0,0,0-.01,0-.03.02-.04.02-.02.01-.07.03-.1.04-.04.03-.13.1-.14.11.05-.02.1-.06.15-.08.06-.02.12-.03.18-.06,0,0,0,0,0,0,.01,0,.02,0,.03,0-.02.01-.03.02-.05.03.31-.09.6-.27.79-.53-.06.05-.13.09-.2.14.04-.04.09-.09.14-.12Z"/>
        <path class="cls-1" d="M39.19,11.96c-.15.04-.3.11-.46.15-.26.07-.52.12-.78.19-.7.19-1,.32-1.54.57-.28.15-.45.19-.67.33-.04.03-.08.06-.12.09-.43.22-.87.47-1.25.73-.61.44-.93.72-1.52,1.25-.6.48-1.32,1.16-1.63,1.65-.08.09-.49.58-.66.85-.16.2-.37.5-.56.8-.21.32-.43.62-.59.97-.04.08-.09.17-.12.26,0,0,.01-.02.02-.03.01-.02.03-.03.04-.05-.01.02-.02.04-.03.05.09-.08.24-.24.31-.28.82-.48,1.43-1.02,1.92-1.37.37-.29.64-.53.93-.74.31-.2.61-.39.93-.57.02.05.03.11.05.16,0-.02-.02-.05-.03-.07.06.24.04.59-.05.73,0,0,0,0,0,0,0,0,0,0,0,0,0,0,0,0,0,0,0,0,0,0,0,0,0,0,0,0,0,0-.02,0-.03.02-.05.03,0,0,0,0,0,0,0,0,0,0-.01,0-.02.01-.04.02-.06.03-1.1.6-1.87,1.16-2.6,1.72-.75.54-1.54,1.02-2.27,1.58-.29.23-.63.47-1.02.84-.56.59-1.09,1.2-1.62,1.81-.19.21-.38.41-.56.63-.14.14-.28.27-.39.43-.27.33-.99,1.36-1.26,2.06-.08.2-.21.42-.29.59.18-.24.35-.5.52-.75,0,0,0,0,0,0,0,0,0,0,0,0,.02-.03.04-.05.06-.08,0,0,0,0,0,0,.02-.02.04-.04.05-.06.02-.03.04-.05.06-.07.02-.03.05-.05.07-.08.01-.02.03-.03.04-.04-.1.11-.2.23-.3.34.2-.17.47-.41.64-.55.24-.14.62-.45.75-.55.53-.35,1.07-.69,1.55-1.1.72-.56,1.13-.95,1.85-1.41.81-.55,1.61-.92,2.13-1.11.15-.05.27-.1.38-.15-.09.04-.17.08-.26.13.61-.23,1.34-.39,2-.56.09-.02.18-.04.26-.06.02,0,.04,0,.06-.01-.37.22-.71.48-1.01.78-.09.07-.17.15-.24.24,0,0,.01,0,.02-.01,0,0-.02.02-.02.02,0,0,0,0,.01,0-.01,0,.4-.25.59-.4,0,0,0,0,0,0,0,.05.06.1.14.06.1-.06.19-.12.28-.18.03-.01.07-.03.09-.05.1-.07.2-.14.29-.22.46-.28.81-.63,1.33-.79-.07,0-.14.02-.21.03.01,0,.02,0,.04,0,.09-.02.19-.03.26-.06-.03.01-.07,0-.1,0-.4-.03-.81.02-1.21.03-.48.03-.77.04-1.22.2-.26.09-.53.16-.79.26-.07.03-.15.08-.21.12.08-.07.15-.15.23-.23.29-.19.54-.43.71-.55.54-.48,1.1-.93,1.59-1.45.39-.52.69-.83.98-1.48.17-.35.27-1.06.27-1.61-.02-.25-.05-.47-.08-.71.02-.11.03-.23.03-.35.11-.06.22-.13.33-.19.4-.2.6-.25,1.03-.51,0,0,0,0,0,0,.46-.21.88-.51,1.29-.79.35-.22.82-.59.98-.72.33-.23.57-.55.85-.83-.05.03-.1.06-.14.09Z"/>
        <path class="cls-1" d="M63.54,23.65c-.28.26-.55.55-.88.75,0,0,0,0,.01-.01-.05.03-.1.06-.15.09.04-.03.07-.07.1-.1-1.12.75-2.41,1.07-3.71,1.62-2.02.89-4.67,1.9-6.99,2.05-5.05,1.27-10.32,1.12-15.42,2.1-1.95.28-4.02.82-6.06,1.11-1.73.06-3.9,1.18-5.18,2.49-.01,0-.02,0-.03,0h0c-.41.1-1.47-.18-1.77.26-.7.09-.42.53.15.31-.02.22.12.3.29.31,0,.04,0,.08,0,.12-.34.43.23.7.61.68-.04.21.12.39.31.44-.57-.02-.63.72-.03.61.08.44.61.18.9.11-.37.13-1.11.64-.48.9-.2.19-.18.55.1.64-.08.06-.16.16-.22.22-.54.18-1.11.36-1.63.57.8-.18,1.6-.36,2.42-.46-.26.4-1.18.91-.86,1.43.54.41,1.82-1.26,2.37-1.53,2.23-.07,4.46.2,6.64.77,2.73.5,5.52.79,8.04,2.06-.45-.39-.94-.48-1.39-.7.05.02.1.04.15.05-.49-.29-1.03-.52-1.58-.67.01,0,.02,0,.04,0-1.2-.44-2.47-.72-3.73-.89,0-.12-.13-.14-.23-.15-1.7-.22-3.31-.93-4.91-1.52,5.23-.21,10.47.84,15.68.13-5.04-.14-10.03-.8-15.02-1.41.1-.06.2-.12.3-.18,3.39.33,6.83.19,10.23.04,3.17-.4,6.02-1.08,9.17-1.41-.03,0-.06,0-.1,0,.81-.1,1.59-.4,2.41-.41-6.08.14-12.14,1.13-18.24.77,3.23-.76,6.57-.56,9.83-1.19,2.16-.4,4.23-1.18,6.41-1.52,3.09-.3,6.05-1,9-1.65-3.85.48-7.51.72-11.34,1.13-2.33.19-4.61.69-6.93.17,0,0-.02-.02-.02-.02,1.8-1.74,5.18-1.08,7.37-1.76,2.62-.38,5.31-.86,7.76-1.88-.16.08-.35.16-.49.24,2.46-.63,4.95-1.71,6.43-3.86-.01.01-.03.02-.04.03.26-.27.5-.57.72-.88ZM25.12,38.33c.09-.07.18-.14.28-.2.12,0,.25-.02.36-.05.01.02.03.03.04.05-.23.06-.46.13-.68.2Z"/>
      </g>
    </g>
    <g>
      <text class="cls-3" transform="translate(110.39 53.99)"><tspan x="0" y="0">SToRy</tspan></text>
      <text class="cls-3" transform="translate(262.76 53.99)"><tspan x="0" y="0">web</tspan></text>
      <text class="cls-2" transform="translate(162.27 86.05)"><tspan x="0" y="0">SOLUTIONS</tspan></text>
    </g>
  </g>
</svg>